<svg xmlns="http://www.w3.org/2000/svg" xmlns:xlink="http://www.w3.org/1999/xlink" viewBox="0 0 500 500"><defs><clipPath id="freepik--clip-path--inject-1--inject-5"><path d="M182.53,166.05a37.2,37.2,0,0,1-2.48,11.53c-2.4,6.24-12.48,3.36-18.24,6.72s-3.84,11-4.8,13.44-3.08,7.67-1.16,11.51,8,.53,7.34,11.08c-.2,3.47-6.34,18.36-6.34,18.36s1.71,3.55,10.4,4.89c29.08,4.48,23.19-5,23.19-5s-2.36-4.33,3.87-19.65c5-12.27,15-21.69,15-29.85s-10.58-9.92-13.92-9.6c-9.93,1-4.61-14.45-1.73-17.81S182.53,166.05,182.53,166.05Z" style="fill:#fff;stroke:#263238;stroke-linecap:round;stroke-linejoin:round"></path></clipPath><clipPath id="freepik--clip-path-2--inject-1--inject-5"><path d="M190.44,238.6s5.44,10.51-23.19,5c-8.64-1.67-10.4-4.89-10.4-4.89s6.14-14.89,6.34-18.36c.62-10.55-5.42-7.24-7.34-11.08a7.5,7.5,0,0,1-.37-.93c.75-4.09,1-7.28,1.19-9.73.12-.31.24-.59.34-.85a10.76,10.76,0,0,0,.36-3,4.57,4.57,0,0,1,.61-1.21c1.9-2.53,11.11-8.18,13.58-10.68,1.18-.15,2.87-1,4-1.18-4.87,5-11,10.63-5.91,11.82,6.88,1.62,19.9-8.47,19.9-8.47L192.4,181l2,2.43s-8.51,11.75-4.05,19.44a12.1,12.1,0,0,0,9.71,6.15c-2,3.16-4.32,6.34-5.78,10C188.68,233.07,190.44,238.6,190.44,238.6Z" style="fill:#fff;stroke:#263238;stroke-linecap:round;stroke-linejoin:round"></path></clipPath><clipPath id="freepik--clip-path-3--inject-1--inject-5"><path d="M138.59,195.81c7.33-6.87,26-20.1,28.27-23.32,1.68-2.4,2.29-8.35,2.49-11.26a3,3,0,0,1,1.63-2.46c1.6-.83,4-2,4.61-1.76,1,.32-1.62,5.8-1.29,7.09s-.33,5.81-.33,5.81c-.29.58.25-.62,0,0,2.64-1.81.06-.06,2.59-2.58s1.94.64,1.94.64-1,4.19-2.58,6.13-5.5,2.9-5.5,2.9c-1.62,1.29-21.91,30-27.95,35.15S130,219,128.24,213.44,131.26,202.69,138.59,195.81Z" style="fill:#fff;stroke:#263238;stroke-linecap:round;stroke-linejoin:round"></path></clipPath><clipPath id="freepik--clip-path-4--inject-1--inject-5"><path d="M193.72,133.21a13.83,13.83,0,0,1,9.6,6.7c5.4,8.72-7.55,22.84-12.94,24.92s-14.46,5.8-15.71,1.23-.83-11.62,2.91-22.41C180.21,136,187.23,132.16,193.72,133.21Z" style="fill:#fff;stroke:#263238;stroke-linecap:round;stroke-linejoin:round"></path></clipPath><clipPath id="freepik--clip-path-5--inject-1--inject-5"><path d="M182.26,393.46s2.18,5.15,1.87,7.19-1.26,3.14-2.36,3.14-4.08-.63-6.75,0a30.69,30.69,0,0,1-8.32.78c-2.51-.16-4.08-2.2-2.36-2.82s8-4.41,9.53-7.95Z" style="fill:#fff;stroke:#263238;stroke-linecap:round;stroke-linejoin:round"></path></clipPath><clipPath id="freepik--clip-path-6--inject-1--inject-5"><path d="M142.6,390.39a31.43,31.43,0,0,0-.35,5.48c.17,2.11.65,4.91.65,7.51s.33,6,2.27,7.11,7.46-.67,7.3-5.86a36,36,0,0,0-2.6-11.39,15.15,15.15,0,0,1-.83-3.4Z" style="fill:#fff;stroke:#263238;stroke-linecap:round;stroke-linejoin:round"></path></clipPath><clipPath id="freepik--clip-path-7--inject-1--inject-5"><path d="M157.22,236.45c1.59-2.67,31.67-.8,32.66,1.12,0,0,4.35,5.84,6.76,20.62,1.6,9.89-3.16,18.54-11.11,28.88-4.17,5.41-.85,4.33-2.31,6.7.54,9.53,2.11,36.07,3.35,45.14,1.52,11.14-1.52,54.18-1.52,54.18l-2.76.15,0,.22-15.95.65a262.44,262.44,0,0,0,1-28.87c-.51-12.66-7.09-49.12-7.09-49.12l.76-.86c-3.11-14.48-6.12-20.9-7-29.84C150.61,249.43,157.18,236.53,157.22,236.45Z" style="fill:#fff;stroke:#263238;stroke-linecap:round;stroke-linejoin:round"></path></clipPath><clipPath id="freepik--clip-path-8--inject-1--inject-5"><path d="M191.71,277.37s-14,25.29-22.86,40.78c-4.84,8.44-5.57,15.7-6.59,18.74s-2.53,51.65-2.53,51.65l-17.13,1.85s-2.15-62.58,1.67-73,28.12-59.52,28.12-59.52" style="fill:#fff;stroke:#263238;stroke-linecap:round;stroke-linejoin:round"></path></clipPath><clipPath id="freepik--clip-path-9--inject-1--inject-5"><path d="M193.26,186.26,164.54,200,119.82,172.3a32.5,32.5,0,0,1,2.46-8.21,6.92,6.92,0,0,0,0-5.54c-.62-1.54-.92.92-1.54,2.46s-2.15,3.7-4.31,3.7-3.08-3.39-2.46-4.31,2.46-5.24,2.15-7.39-3.08,2.15-3.08,2.15-4.62,3.7-4.62,4.93S110,168.4,110,170.25s5.55,4.62,5.55,4.62,34.1,31.7,41,36,20.32-.86,29-3.45A115.69,115.69,0,0,1,199.74,204" style="fill:#fff;stroke:#263238;stroke-linecap:round;stroke-linejoin:round"></path></clipPath><clipPath id="freepik--clip-path-10--inject-1--inject-5"><path d="M349.31,289.69c-3.9-2.93-14.2,4.74-39.59,4a40.17,40.17,0,0,0-9,.82c-9.58-.05-21.23,7-21.23,7S261.87,316.15,261.87,321s18.07,30.76,19,35.64c.4,2,2.21,9.55,1.75,15.3-.55.06-1.47.09-2.65.12,11.93,12.8,29,17.76,36.47,10.28a48.85,48.85,0,0,0,8.94-12.59c-2.11-7.13-5.79-14.49-6.86-23.3-.65-5.28-.67-21.87-3.37-34.73,9.47-2.62,33.13-9.39,35.86-12.11C354.47,296.22,353.22,292.62,349.31,289.69Z" style="fill:#fff;stroke:#263238;stroke-miterlimit:10"></path></clipPath><clipPath id="freepik--clip-path-11--inject-1--inject-5"><path d="M317.71,273s5.41,4.39,7.43,6.42,17.69,18.89,21.74,20.58,9.46-2.36,5.41-11.15-27.15-16.52-30.86-20.92Z" style="fill:#fff;stroke:#263238;stroke-miterlimit:10"></path></clipPath><clipPath id="freepik--clip-path-12--inject-1--inject-5"><path d="M293.07,298.62a3.45,3.45,0,0,0-2.35-2.25c-1.11.37-2.18.77-3.19,1.18l-.27-.44c-3.91-6.35-17.58-10.74-17.09-2.93,0,0,4.5,7.2,5.28,10.8-1,.9-2.12,1.92-3.28,3,0,1.55.78,3.41,3.21,5.18,5.72,4.17,19.25,8.85,19.25,8.85S294.63,303.82,293.07,298.62Z" style="fill:#fff;stroke:#263238;stroke-miterlimit:10"></path></clipPath><clipPath id="freepik--clip-path-13--inject-1--inject-5"><path d="M284.9,272.86c-2.62-6.56-10.93-6.56-14-3.94,0,0-9.19.44-9.19,7.44,0,2.87,1.92,7.65,4.93,12.17-.8-.7-3.18-1.23-3.18,2.26,0,4.81,7.12,3.14,7.42,3.07,3.87,4,8.54,6.85,13.14,6.12C295,298.23,287.53,279.42,284.9,272.86Z" style="fill:#fff;stroke:#263238;stroke-miterlimit:10"></path></clipPath><clipPath id="freepik--clip-path-14--inject-1--inject-5"><path d="M305.72,387.46s-24.58-9.11-41.23-11.89c-9.76-1.63-17.75-4-22.43,3.78s4.9,14.72,10.14,17.23c17.73,8.49,85.08,3,88.21,3.48s7.28,2.6,15.08,2.6,11.45-6.76,6.24-9.88-20.8,1.56-27.05,1S305.72,387.46,305.72,387.46Z" style="fill:#fff;stroke:#263238;stroke-miterlimit:10"></path></clipPath><clipPath id="freepik--clip-path-15--inject-1--inject-5"><path d="M352.77,376.81S344,372.14,334,379.93c-17.84,14-40.43,19.08-45.74,20.85s-19.45-.44-23,4-2.21,8,3.09,9.73,16.81-3.54,20.34-5.31,24.09-4.44,41.26-6.52,34.22-9.72,39.94-14.4" style="fill:#fff;stroke:#263238;stroke-miterlimit:10"></path></clipPath><clipPath id="freepik--clip-path-16--inject-1--inject-5"><path d="M265.29,316.15a13.65,13.65,0,0,0-5.86,13.67c1.47,9.27,13.35,46,17.75,48.92S306.3,345,306.3,345L317,342s4.39-6.34,4.39-7.81-2.93-2.44-2.93-2.44,4.88.49,4.88-1-5.37-2.93-7.32-2.45-11.23,9.28-11.71,11.23S282,359.27,282,359.27L275.88,330" style="fill:#fff;stroke:#263238;stroke-miterlimit:10"></path></clipPath></defs><!--Photo--><g id="freepik--background-simple--inject-1--inject-5"><g style="opacity:0.7000000000000001"><path d="M292.37,129s.89-3.62.92-3.86c.31-2.74-.7-8.23-3.51-9.5a3.65,3.65,0,0,0-4.92,2.33c-.7,2.07.31,4.56,1.47,6.26C287.7,126.26,292.36,129,292.37,129Z" style="fill:#0067A5"></path><path d="M325.45,140.55c.05,0,1.57-3.39,1.64-3.62.83-2.63.87-8.2-1.65-10a3.66,3.66,0,0,0-5.27,1.36c-1.08,1.9-.56,4.53.26,6.42C321.4,136.94,325.45,140.55,325.45,140.55Z" style="fill:#0067A5"></path><path d="M268.32,120.6s5.37.74,7.69,0c2-.61,4.31-1.92,5.06-4a3.65,3.65,0,0,0-2.39-4.89c-3-.76-7.2,2.89-8.67,5.22C269.88,117.21,268.26,120.59,268.32,120.6Z" style="fill:#0067A5"></path><path d="M232.09,120.65c1.34-1,2.76-2.68,2.75-4.46a3,3,0,0,0-3.2-3.06c-2.51.27-4.69,4.24-5.15,6.44,0,.19-.33,3.24-.28,3.23S230.53,121.85,232.09,120.65Z" style="fill:#0067A5"></path><path d="M434.7,224.87a100,100,0,0,0-5-19.67,105,105,0,0,0-51.37-57.12,62.93,62.93,0,0,0-38.71-6.39,3.46,3.46,0,0,0-1-3.42c-2.25-2.11-7.7-.93-10.11.41-.14.07-1.39,1-2.29,1.62.44-.48.88-1,1.3-1.44,1.6-1.71,3.16-3.17,4.56-4.46.8-.72,1.54-1.36,2.24-2,1.07.16,5.41.75,7.44.18s4.36-1.82,5.15-3.85a3.65,3.65,0,0,0-2.27-4.94c-3-.83-7.27,2.72-8.79,5-.14.2-1.84,3.55-1.78,3.56h.07c-.69.55-1.41,1.16-2.19,1.83-1.43,1.26-3,2.69-4.67,4.37a65.75,65.75,0,0,0-5,5.67c-.46.59-.91,1.19-1.36,1.81l-2.83.89c-.17-2.89-1.59-7.37-4.21-8.32a3.67,3.67,0,0,0-4.73,2.7c-.53,2.12.67,4.52,2,6.13a8.49,8.49,0,0,0,1.43,1.31c-4.54,1.52-9.11,3.08-13.75,4.49a3.44,3.44,0,0,0-1.93-3.36c-2.78-1.35-7.64,1.38-9.54,3.38-.15.15-1.88,2.43-2.29,3,.16-2.09.35-4.17.62-6.22a64,64,0,0,1,1.58-8.2c.34.12,5.17,1.78,7.49,1.56,2.06-.19,4.61-1,5.76-2.87a3.66,3.66,0,0,0-1.36-5.27c-2.78-1.35-7.64,1.39-9.55,3.38-.15.16-2,2.62-2.32,3.08,0-.15.07-.32.11-.47a47.39,47.39,0,0,1,3-7.8c.67-1.4,1.39-2.69,2.12-3.93.91.43,5,2.27,7.11,2.3s4.7-.5,6-2.22a3.67,3.67,0,0,0-.77-5.39c-2.62-1.64-7.75.54-9.86,2.31-.12.1-1.18,1.21-1.94,2,.34-.56.67-1.14,1-1.66,1.24-2,2.5-3.72,3.63-5.24.65-.87,1.25-1.64,1.83-2.35,1.08,0,5.45-.29,7.34-1.23s3.93-2.61,4.33-4.76a3.65,3.65,0,0,0-3.17-4.42c-3.08-.26-6.62,4-7.68,6.59-.09.22-1.13,3.83-1.07,3.83h.06c-.56.67-1.16,1.4-1.8,2.21-1.16,1.51-2.47,3.22-3.76,5.18a67.27,67.27,0,0,0-3.87,6.52,47.71,47.71,0,0,0-3.24,7.83l0,.1c0-.9-.11-3.44-.14-3.63-.42-2.73-2.84-7.75-5.89-8.23a3.28,3.28,0,0,0-2,.3,3.4,3.4,0,0,0-1.38-1.49c-2.69-1.52-7.71.89-9.75,2.75-.14.13-1.8,2.05-2.37,2.75l0-.09a48,48,0,0,0,2.36-8.15,67.16,67.16,0,0,0,1-7.51c.21-2.33.26-4.48.29-6.39,0-1,0-2,0-2.85l.05,0s1.49-3.43,1.56-3.66c.76-2.65.68-8.22-1.89-10a3.67,3.67,0,0,0-5.24,1.48c-1,1.92-.44,4.55.42,6.42s4.14,4.83,5,5.55c0,.91,0,1.89,0,3-.07,1.9-.17,4-.43,6.36-.07.62-.17,1.28-.25,1.93-.09-1.12-.22-2.65-.25-2.79-.55-2.71-3.19-7.62-6.26-8a3.66,3.66,0,0,0-4,3.73c0,2.18,1.7,4.24,3.33,5.5s6,2.41,7,2.65c-.21,1.42-.46,2.88-.81,4.39a46.7,46.7,0,0,1-2.5,8c-.06.15-.14.29-.21.44.06-.56.14-3.64.12-3.86-.25-2.75-2.33-7.92-5.35-8.6a3.66,3.66,0,0,0-4.35,3.27c-.27,2.16,1.22,4.4,2.7,5.83,1.68,1.63,6.49,3.34,6.83,3.46a62.38,62.38,0,0,1-3.89,7.39c-1.07,1.77-2.22,3.51-3.4,5.25.06-.72.13-3.59.11-3.8-.24-2.75-2.33-7.91-5.34-8.6a3.67,3.67,0,0,0-4.36,3.27c-.26,2.16,1.22,4.4,2.7,5.83s6.17,3.23,6.79,3.45l-1.6,2.37c-1.77,2.57-3.55,5.13-5.23,7.72l-.26.41-1.34-.28c0-.36,0-.62,0-.68-.24-2.75-2.33-7.91-5.34-8.6a3.66,3.66,0,0,0-4.35,3.27,5.83,5.83,0,0,0,1,3.66c-5.15-1.67-9.85-3.68-14.7-5.67,0-.16.07-.32.11-.48.12-.51.23-1,.34-1.55.93,0,4.43.12,6-.52s3.36-1.86,3.82-3.57A3,3,0,0,0,233,139c-2.48-.41-5.64,2.85-6.67,4.85,0,.07-.24.6-.46,1.2.29-1.35.56-2.7.79-4.05a51.47,51.47,0,0,0,.76-7c.32,0,4.42.19,6.18-.52,1.56-.63,3.36-1.86,3.83-3.57a3,3,0,0,0-2.29-3.8c-2.48-.41-5.64,2.85-6.66,4.85-.08.14-.81,2.07-1,2.77v-.08a38.27,38.27,0,0,0-.5-6.89,51.59,51.59,0,0,0-1.31-6c-.5-1.84-1.07-3.5-1.58-5-.28-.79-.56-1.51-.82-2.18l0,0s.17-3,.15-3.23c-.16-2.24-1.8-6.47-4.24-7.07a3,3,0,0,0-3.59,2.61c-.24,1.76.94,3.6,2.13,4.79s4.53,2.52,5.36,2.83c.26.7.53,1.45.81,2.28.48,1.47,1,3.13,1.46,5,.12.49.23,1,.35,1.54-.38-.82-.91-2-1-2.06-1.18-1.91-4.58-4.91-7-4.31a3,3,0,0,0-2,4c.59,1.68,2.49,2.76,4.09,3.27s5.3.14,6.09,0c.25,1.15.47,2.33.63,3.58a38.78,38.78,0,0,1,.35,6.81c0,.13,0,.26,0,.39-.12-.44-.93-2.81-1-3-1-2-4-5.39-6.51-5.06a3,3,0,0,0-2.4,3.72c.4,1.73,2.17,3,3.71,3.69,1.77.79,6,.72,6.19.72a51.72,51.72,0,0,1-.89,6.74c-.31,1.65-.7,3.31-1.11,5-.16-.57-.92-2.78-1-2.94-1-2-4-5.38-6.51-5.06a3,3,0,0,0-2.4,3.73c.41,1.73,2.17,3,3.71,3.69,1.73.76,5.81.72,6.16.71-.19.76-.37,1.51-.56,2.27l-.09.34C213,144,200.75,139.58,180,139.58c-44.15,0-114.23,59.52-125.45,102.74-6.5,25.07-5.29,53.48,3.75,77.79,6.06,16.31,17,31.27,32.18,39.42,18,9.6,35,5.71,53.72,1.9,17.45-3.56,38.78-13.84,56.82-9.28,37.24,9.41,68.43,32.24,108.15,32.7C386.74,385.74,445.53,298.3,434.7,224.87Zm-112-80.27c.92-1.24,1.86-2.37,2.81-3.46a39.74,39.74,0,0,0,4,2.55c-2.57.64-5.13,1.37-7.7,2.15C322.07,145.42,322.37,145,322.67,144.6Zm-37,12.14-.68.14,0-.35ZM261.8,158.6a3.41,3.41,0,0,0-1.62-2.16c-2-1.12-5.18-.12-7.57,1.22l-1.44-.25c1.6-2.59,3.31-5.17,5-7.77.36-.54.7-1.09,1.06-1.64,1.06.44,5.05,2,7.14,2s4.67-.71,5.93-2.49a3.66,3.66,0,0,0-1-5.35c-2.69-1.53-7.72.88-9.75,2.75-.07.06-.53.59-1.05,1.18.91-1.43,1.8-2.87,2.64-4.32A64.79,64.79,0,0,0,265,134c.6.25,5.09,2.11,7.34,2a9.44,9.44,0,0,0,4.49-1.2,9.43,9.43,0,0,0,2.75,3.74c1.72,1.46,6.39,2.82,7,3a64.88,64.88,0,0,0-1.82,8.45c-.26,1.66-.46,3.34-.65,5,0-.78-.06-1.48-.08-1.58-.42-2.72-2.84-7.74-5.89-8.23a3.65,3.65,0,0,0-4.13,3.54c-.13,2.18,1.5,4.32,3.08,5.65,1.4,1.2,4.75,2.32,6.28,2.78A86.7,86.7,0,0,1,269,158.71C266.47,158.76,264.08,158.71,261.8,158.6Z" style="fill:#0067A5"></path><g style="opacity:0.7000000000000001"><path d="M292.37,129s.89-3.62.92-3.86c.31-2.74-.7-8.23-3.51-9.5a3.65,3.65,0,0,0-4.92,2.33c-.7,2.07.31,4.56,1.47,6.26C287.7,126.26,292.36,129,292.37,129Z" style="fill:#fff"></path><path d="M325.45,140.55c.05,0,1.57-3.39,1.64-3.62.83-2.63.87-8.2-1.65-10a3.66,3.66,0,0,0-5.27,1.36c-1.08,1.9-.56,4.53.26,6.42C321.4,136.94,325.45,140.55,325.45,140.55Z" style="fill:#fff"></path><path d="M268.32,120.6s5.37.74,7.69,0c2-.61,4.31-1.92,5.06-4a3.65,3.65,0,0,0-2.39-4.89c-3-.76-7.2,2.89-8.67,5.22C269.88,117.21,268.26,120.59,268.32,120.6Z" style="fill:#fff"></path><path d="M232.09,120.65c1.34-1,2.76-2.68,2.75-4.46a3,3,0,0,0-3.2-3.06c-2.51.27-4.69,4.24-5.15,6.44,0,.19-.33,3.24-.28,3.23S230.53,121.85,232.09,120.65Z" style="fill:#fff"></path><path d="M434.7,224.87a100,100,0,0,0-5-19.67,105,105,0,0,0-51.37-57.12,62.93,62.93,0,0,0-38.71-6.39,3.46,3.46,0,0,0-1-3.42c-2.25-2.11-7.7-.93-10.11.41-.14.07-1.39,1-2.29,1.62.44-.48.88-1,1.3-1.44,1.6-1.71,3.16-3.17,4.56-4.46.8-.72,1.54-1.36,2.24-2,1.07.16,5.41.75,7.44.18s4.36-1.82,5.15-3.85a3.65,3.65,0,0,0-2.27-4.94c-3-.83-7.27,2.72-8.79,5-.14.2-1.84,3.55-1.78,3.56h.07c-.69.55-1.41,1.16-2.19,1.83-1.43,1.26-3,2.69-4.67,4.37a65.75,65.75,0,0,0-5,5.67c-.46.59-.91,1.19-1.36,1.81l-2.83.89c-.17-2.89-1.59-7.37-4.21-8.32a3.67,3.67,0,0,0-4.73,2.7c-.53,2.12.67,4.52,2,6.13a8.49,8.49,0,0,0,1.43,1.31c-4.54,1.52-9.11,3.08-13.75,4.49a3.44,3.44,0,0,0-1.93-3.36c-2.78-1.35-7.64,1.38-9.54,3.38-.15.15-1.88,2.43-2.29,3,.16-2.09.35-4.17.62-6.22a64,64,0,0,1,1.58-8.2c.34.12,5.17,1.78,7.49,1.56,2.06-.19,4.61-1,5.76-2.87a3.66,3.66,0,0,0-1.36-5.27c-2.78-1.35-7.64,1.39-9.55,3.38-.15.16-2,2.62-2.32,3.08,0-.15.07-.32.11-.47a47.39,47.39,0,0,1,3-7.8c.67-1.4,1.39-2.69,2.12-3.93.91.43,5,2.27,7.11,2.3s4.7-.5,6-2.22a3.67,3.67,0,0,0-.77-5.39c-2.62-1.64-7.75.54-9.86,2.31-.12.1-1.18,1.21-1.94,2,.34-.56.67-1.14,1-1.66,1.24-2,2.5-3.72,3.63-5.24.65-.87,1.25-1.64,1.83-2.35,1.08,0,5.45-.29,7.34-1.23s3.93-2.61,4.33-4.76a3.65,3.65,0,0,0-3.17-4.42c-3.08-.26-6.62,4-7.68,6.59-.09.22-1.13,3.83-1.07,3.83h.06c-.56.67-1.16,1.4-1.8,2.21-1.16,1.51-2.47,3.22-3.76,5.18a67.27,67.27,0,0,0-3.87,6.52,47.71,47.71,0,0,0-3.24,7.83l0,.1c0-.9-.11-3.44-.14-3.63-.42-2.73-2.84-7.75-5.89-8.23a3.28,3.28,0,0,0-2,.3,3.4,3.4,0,0,0-1.38-1.49c-2.69-1.52-7.71.89-9.75,2.75-.14.13-1.8,2.05-2.37,2.75l0-.09a48,48,0,0,0,2.36-8.15,67.16,67.16,0,0,0,1-7.51c.21-2.33.26-4.48.29-6.39,0-1,0-2,0-2.85l.05,0s1.49-3.43,1.56-3.66c.76-2.65.68-8.22-1.89-10a3.67,3.67,0,0,0-5.24,1.48c-1,1.92-.44,4.55.42,6.42s4.14,4.83,5,5.55c0,.91,0,1.89,0,3-.07,1.9-.17,4-.43,6.36-.07.62-.17,1.28-.25,1.93-.09-1.12-.22-2.65-.25-2.79-.55-2.71-3.19-7.62-6.26-8a3.66,3.66,0,0,0-4,3.73c0,2.18,1.7,4.24,3.33,5.5s6,2.41,7,2.65c-.21,1.42-.46,2.88-.81,4.39a46.7,46.7,0,0,1-2.5,8c-.06.15-.14.29-.21.44.06-.56.14-3.64.12-3.86-.25-2.75-2.33-7.92-5.35-8.6a3.66,3.66,0,0,0-4.35,3.27c-.27,2.16,1.22,4.4,2.7,5.83,1.68,1.63,6.49,3.34,6.83,3.46a62.38,62.38,0,0,1-3.89,7.39c-1.07,1.77-2.22,3.51-3.4,5.25.06-.72.13-3.59.11-3.8-.24-2.75-2.33-7.91-5.34-8.6a3.67,3.67,0,0,0-4.36,3.27c-.26,2.16,1.22,4.4,2.7,5.83s6.17,3.23,6.79,3.45l-1.6,2.37c-1.77,2.57-3.55,5.13-5.23,7.72l-.26.41-1.34-.28c0-.36,0-.62,0-.68-.24-2.75-2.33-7.91-5.34-8.6a3.66,3.66,0,0,0-4.35,3.27,5.83,5.83,0,0,0,1,3.66c-5.15-1.67-9.85-3.68-14.7-5.67,0-.16.07-.32.11-.48.12-.51.23-1,.34-1.55.93,0,4.43.12,6-.52s3.36-1.86,3.82-3.57A3,3,0,0,0,233,139c-2.48-.41-5.64,2.85-6.67,4.85,0,.07-.24.6-.46,1.2.29-1.35.56-2.7.79-4.05a51.47,51.47,0,0,0,.76-7c.32,0,4.42.19,6.18-.52,1.56-.63,3.36-1.86,3.83-3.57a3,3,0,0,0-2.29-3.8c-2.48-.41-5.64,2.85-6.66,4.85-.08.14-.81,2.07-1,2.77v-.08a38.27,38.27,0,0,0-.5-6.89,51.59,51.59,0,0,0-1.31-6c-.5-1.84-1.07-3.5-1.58-5-.28-.79-.56-1.51-.82-2.18l0,0s.17-3,.15-3.23c-.16-2.24-1.8-6.47-4.24-7.07a3,3,0,0,0-3.59,2.61c-.24,1.76.94,3.6,2.13,4.79s4.53,2.52,5.36,2.83c.26.7.53,1.45.81,2.28.48,1.47,1,3.13,1.46,5,.12.49.23,1,.35,1.54-.38-.82-.91-2-1-2.06-1.18-1.91-4.58-4.91-7-4.31a3,3,0,0,0-2,4c.59,1.68,2.49,2.76,4.09,3.27s5.3.14,6.09,0c.25,1.15.47,2.33.63,3.58a38.78,38.78,0,0,1,.35,6.81c0,.13,0,.26,0,.39-.12-.44-.93-2.81-1-3-1-2-4-5.39-6.51-5.06a3,3,0,0,0-2.4,3.72c.4,1.73,2.17,3,3.71,3.69,1.77.79,6,.72,6.19.72a51.72,51.72,0,0,1-.89,6.74c-.31,1.65-.7,3.31-1.11,5-.16-.57-.92-2.78-1-2.94-1-2-4-5.38-6.51-5.06a3,3,0,0,0-2.4,3.73c.41,1.73,2.17,3,3.71,3.69,1.73.76,5.81.72,6.16.71-.19.76-.37,1.51-.56,2.27l-.09.34C213,144,200.75,139.58,180,139.58c-44.15,0-114.23,59.52-125.45,102.74-6.5,25.07-5.29,53.48,3.75,77.79,6.06,16.31,17,31.27,32.18,39.42,18,9.6,35,5.71,53.72,1.9,17.45-3.56,38.78-13.84,56.82-9.28,37.24,9.41,68.43,32.24,108.15,32.7C386.74,385.74,445.53,298.3,434.7,224.87Zm-112-80.27c.92-1.24,1.86-2.37,2.81-3.46a39.74,39.74,0,0,0,4,2.55c-2.57.64-5.13,1.37-7.7,2.15C322.07,145.42,322.37,145,322.67,144.6Zm-37,12.14-.68.14,0-.35ZM261.8,158.6a3.41,3.41,0,0,0-1.62-2.16c-2-1.12-5.18-.12-7.57,1.22l-1.44-.25c1.6-2.59,3.31-5.17,5-7.77.36-.54.7-1.09,1.06-1.64,1.06.44,5.05,2,7.14,2s4.67-.71,5.93-2.49a3.66,3.66,0,0,0-1-5.35c-2.69-1.53-7.72.88-9.75,2.75-.07.06-.53.59-1.05,1.18.91-1.43,1.8-2.87,2.64-4.32A64.79,64.79,0,0,0,265,134c.6.25,5.09,2.11,7.34,2a9.44,9.44,0,0,0,4.49-1.2,9.43,9.43,0,0,0,2.75,3.74c1.72,1.46,6.39,2.82,7,3a64.88,64.88,0,0,0-1.82,8.45c-.26,1.66-.46,3.34-.65,5,0-.78-.06-1.48-.08-1.58-.42-2.72-2.84-7.74-5.89-8.23a3.65,3.65,0,0,0-4.13,3.54c-.13,2.18,1.5,4.32,3.08,5.65,1.4,1.2,4.75,2.32,6.28,2.78A86.7,86.7,0,0,1,269,158.71C266.47,158.76,264.08,158.71,261.8,158.6Z" style="fill:#fff"></path></g></g></g><g id="freepik--photo-1--inject-1--inject-5"><rect x="68.47" y="108.71" width="182.6" height="249" transform="translate(-54.65 48.99) rotate(-14.92)" style="fill:#263238;stroke:#263238;stroke-miterlimit:10"></rect><rect x="75.44" y="116.4" width="168.66" height="233.63" transform="translate(-54.65 48.99) rotate(-14.92)" style="fill:#0067A5"></rect><path d="M212.58,340c-.65-1.07-1.37-2.29-2.15-3.68-.44-.77-.89-1.61-1.34-2.47a14.83,14.83,0,0,1-4.42.9,4.52,4.52,0,0,1-3.41-1.73,2.17,2.17,0,0,1,.82-3.13c1.66-.79,4.54.85,5.67,2,.07.07.7.92,1.1,1.45-.18-.35-.37-.69-.55-1.05-.37-.72-.72-1.45-1.09-2.23L206.7,329c-.18-.39-.32-.82-.48-1.23-.36-1-.67-1.95-1-2.95a14.18,14.18,0,0,1-4.11,1.49,4.5,4.5,0,0,1-3.64-1.19,2.17,2.17,0,0,1,.34-3.22c1.52-1,4.62.15,5.91,1.16.08.06.93.89,1.39,1.35-.17-.6-.35-1.2-.5-1.82-.45-1.78-.85-3.6-1.25-5.41-.12-.56-.25-1.11-.38-1.66a15.34,15.34,0,0,1-4.25,1.56,4.5,4.5,0,0,1-3.64-1.19,2.17,2.17,0,0,1,.34-3.22c1.52-1,4.62.15,5.91,1.16.1.08,1.32,1.27,1.62,1.59-.29-1.22-.58-2.43-.91-3.61a39.24,39.24,0,0,0-1.65-4.69,15.32,15.32,0,0,1-4.28,1.57,4.49,4.49,0,0,1-3.63-1.19,2.17,2.17,0,0,1,.34-3.22c1.52-1,4.61.15,5.91,1.16.1.08,1.41,1.36,1.64,1.61,0-.08-.07-.18-.11-.27a27.2,27.2,0,0,0-2.47-4.32c-.52-.77-1.05-1.47-1.59-2.13a14.34,14.34,0,0,1-4,2,4.51,4.51,0,0,1-3.74-.78,2.31,2.31,0,0,1-.69-1.3,29.32,29.32,0,0,1-2.78,1.08c-.26.62-.53,1.28-.81,2-.49,1.3-1,2.78-1.51,4.42-.13.43-.25.91-.37,1.37.37-.73.89-1.72,1-1.81,1.13-1.68,4.3-4.24,6.47-3.6a2.67,2.67,0,0,1,1.62,3.63c-.6,1.48-2.34,2.38-3.8,2.77s-4.73-.08-5.46-.2c-.26,1-.51,2.08-.7,3.19a33.94,33.94,0,0,0-.57,6.09c0,.12,0,.24,0,.36.12-.39.94-2.49,1-2.63.94-1.79,3.81-4.68,6-4.29a2.67,2.67,0,0,1,2,3.43c-.43,1.54-2.07,2.63-3.47,3.17-1.59.63-5.32.42-5.58.4a45.69,45.69,0,0,0,.53,6.09c.22,1.49.51,3,.81,4.5.17-.51.93-2.46,1-2.6.94-1.78,3.81-4.67,6-4.28a2.67,2.67,0,0,1,2,3.43c-.44,1.53-2.07,2.62-3.47,3.17s-5.07.43-5.56.4c.14.69.27,1.37.42,2,.46,2.23.94,4.47,1.34,6.69.14.77.25,1.53.36,2.3.28-.75.81-2.11.87-2.22.94-1.78,3.81-4.68,6-4.29a2.66,2.66,0,0,1,2,3.43c-.43,1.54-2.06,2.63-3.47,3.18s-4.48.45-5.36.41c.18,1.27.33,2.54.41,3.79,0,.54.09,1.09.08,1.61v.15l28.37-7.56Z" style="fill:#fff"></path><path d="M270.42,321l.58,2.19c-.62.09-1.11.14-1.29.16,0,.52-.06,1-.1,1.53l-1.33.36c.05-.55.1-1.1.15-1.67-.56-.09-4-.64-5.32-1.52s-2.64-2.23-2.75-3.82a2.67,2.67,0,0,1,2.67-2.95c2.26.07,4.47,3.49,5,5.43,0,.13.29,1.64.4,2.42.06-.65.11-1.29.15-2,.07-1,.11-2,.16-3,0-.51,0-1,0-1.56s0-1,0-1.56c0-.17,0-.35,0-.52l1.2,4.51c0,.74,0,1.47-.07,2.18,0,.5-.05,1-.08,1.46.17-.8.45-2.07.49-2.18l0-.07-35-131.4c-6.83,24.55-14.95,49.95-20.11,53.64-10.37,7.41-62.94-59.23-91.82-56.27-17.37,1.78-35.28,35.46-46.79,62L108.36,367.8l9.94-2.65a3.59,3.59,0,0,1-2-1.43,2.17,2.17,0,0,1,.82-3.13c1.66-.8,4.54.84,5.67,2,.06.05.47.6.84,1.1l.07,0-.36-.69c-.37-.72-.71-1.44-1.09-2.23l-.51-1.16c-.18-.38-.32-.81-.48-1.22-.36-1-.67-2-1-3a14.47,14.47,0,0,1-4.11,1.5,4.57,4.57,0,0,1-3.64-1.19,2.17,2.17,0,0,1,.34-3.22c1.52-1,4.62.15,5.91,1.16.08.06.93.89,1.39,1.35-.17-.61-.35-1.21-.5-1.83-.45-1.78-.85-3.6-1.25-5.41-.12-.55-.25-1.1-.38-1.66a14.85,14.85,0,0,1-4.25,1.57,4.57,4.57,0,0,1-3.64-1.19,2.17,2.17,0,0,1,.34-3.22c1.52-1,4.62.15,5.91,1.15.1.08,1.32,1.27,1.62,1.59-.29-1.21-.58-2.42-.91-3.61a39.87,39.87,0,0,0-1.65-4.69,15.29,15.29,0,0,1-4.27,1.58,4.57,4.57,0,0,1-3.64-1.19,2.17,2.17,0,0,1,.34-3.22c1.52-1,4.62.15,5.91,1.16.1.08,1.42,1.36,1.64,1.61,0-.09-.07-.19-.11-.27a27.76,27.76,0,0,0-2.47-4.33c-.52-.76-1-1.46-1.59-2.13a14.61,14.61,0,0,1-4,2,4.55,4.55,0,0,1-3.74-.78,2.18,2.18,0,0,1,0-3.24c1.4-1.2,4.61-.36,6,.5.07.05.8.61,1.31,1-.24-.29-.49-.61-.73-.89-.91-1.05-1.8-2-2.6-2.77-.46-.45-.88-.85-1.28-1.22a14.5,14.5,0,0,1-4.43-.08,4.54,4.54,0,0,1-3-2.42,2.17,2.17,0,0,1,1.48-2.88c1.79-.42,4.25,1.8,5.1,3.21.07.12,1,2.15,1,2.16h0c.39.35.81.73,1.25,1.15.82.78,1.74,1.68,2.67,2.72a38.06,38.06,0,0,1,2.84,3.5,27.28,27.28,0,0,1,2.6,4.33.08.08,0,0,1,0,.05c-.07-.53-.23-2-.23-2.15,0-1.64,1-4.81,2.75-5.36a2.18,2.18,0,0,1,2.74,1.73,4.51,4.51,0,0,1-1.32,3.59,14.84,14.84,0,0,1-3.86,2.37,38.36,38.36,0,0,1,1.81,4.82c.29.95.56,1.92.82,2.9-.05-.46-.09-.88-.09-.94,0-1.64,1-4.81,2.75-5.36a2.18,2.18,0,0,1,2.74,1.73,4.55,4.55,0,0,1-1.32,3.59,14.19,14.19,0,0,1-3.75,2.32c.1.37.2.75.29,1.13.44,1.8.88,3.6,1.36,5.36.17.62.36,1.22.55,1.82,0-.41-.08-.75-.08-.81,0-1.64,1-4.81,2.75-5.36a2.18,2.18,0,0,1,2.74,1.73,4.55,4.55,0,0,1-1.32,3.59,13.93,13.93,0,0,1-3.63,2.27c.21.61.42,1.23.65,1.81.17.4.3.79.49,1.18l.54,1.15c.36.72.74,1.46,1.11,2.16l.48.87,13.47-3.58c-.94,0-3.93-.2-5.26-.85s-2.9-1.88-3.21-3.44a2.69,2.69,0,0,1,2.29-3.26c2.25-.21,4.87,2.91,5.66,4.77.05.1.43,1.35.65,2.14-.06-.49-.13-1-.18-1.45-.12-1-.21-2-.31-3l-.09-1.55c0-.52,0-1.08,0-1.62,0-1.26,0-2.53.14-3.81-.88.1-3.94.41-5.38,0s-3.14-1.42-3.68-2.92a2.67,2.67,0,0,1,1.76-3.57c2.19-.55,5.26,2.14,6.32,3.85.07.11.69,1.42,1,2.15.06-.77.12-1.54.2-2.31.25-2.25.56-4.51.87-6.77l.27-2.07c-.48.06-4,.48-5.57,0s-3.15-1.42-3.69-2.92a2.68,2.68,0,0,1,1.77-3.57c2.19-.55,5.26,2.14,6.32,3.85.08.13,1,2,1.18,2.52.2-1.52.38-3,.49-4.55a46.25,46.25,0,0,0,.1-6.1c-.26,0-4,.5-5.59,0-1.44-.44-3.15-1.42-3.69-2.92a2.66,2.66,0,0,1,1.76-3.56c2.2-.55,5.26,2.14,6.33,3.85.08.13,1,2.17,1.19,2.55,0-.11,0-.24,0-.35a33.4,33.4,0,0,0-1-6c-.27-1.1-.59-2.13-.92-3.13-.72.17-3.9.88-5.44.58s-3.28-1.06-4-2.5a2.66,2.66,0,0,1,1.36-3.73c2.12-.79,5.46,1.54,6.71,3.13.06.09.66,1,1.08,1.74-.16-.45-.31-.91-.47-1.34-.6-1.6-1.24-3-1.82-4.3-.33-.71-.65-1.35-.95-1.95-.77-.19-3.86-1-5.07-2s-2.42-2.46-2.38-4a2.67,2.67,0,0,1,2.93-2.69c2.24.28,4.13,3.89,4.51,5.87,0,.17.23,2.91.19,2.9h0c.3.56.62,1.18,1,1.85.6,1.25,1.28,2.67,1.91,4.27a47.79,47.79,0,0,1,1.79,5.24,34.72,34.72,0,0,1,1.14,6.1.17.17,0,0,1,0,.07c.14-.65.59-2.44.64-2.58.71-1.88,3.2-5.11,5.46-5a2.49,2.49,0,0,1,1.38.51A2.48,2.48,0,0,1,149,317c2.15-.69,5.38,1.79,6.56,3.43.08.11,1,1.73,1.29,2.32a.19.19,0,0,1,0-.07,34.92,34.92,0,0,1-.46-6.18,47,47,0,0,1,.37-5.53c.2-1.71.49-3.25.75-4.62.15-.74.3-1.41.44-2l0,0s-.55-2.68-.56-2.85c-.15-2,.75-6,2.84-6.84a2.68,2.68,0,0,1,3.53,1.84c.44,1.53-.36,3.32-1.26,4.53s-3.69,2.84-4.39,3.23c-.14.65-.28,1.35-.42,2.13-.23,1.37-.48,2.92-.64,4.62,0,.45-.07.94-.11,1.41.23-.78.56-1.86.6-2,.79-1.85,3.42-5,5.67-4.76a2.68,2.68,0,0,1,2.28,3.27c-.31,1.56-1.85,2.78-3.21,3.43s-4.66.82-5.4.85c-.07,1.05-.11,2.13-.08,3.26a34.23,34.23,0,0,0,.58,6.09l.09.35c0-.41.45-2.63.5-2.78.58-1.93,2.85-5.31,5.11-5.35a2.67,2.67,0,0,1,2.63,3c-.14,1.59-1.54,3-2.81,3.77-1.45.91-5.15,1.41-5.41,1.45a47.1,47.1,0,0,0,1.67,5.87c.5,1.42,1.07,2.85,1.65,4.27.07-.53.45-2.59.49-2.74.59-1.93,2.86-5.31,5.11-5.35a2.67,2.67,0,0,1,2.63,3c-.14,1.59-1.54,3-2.81,3.77s-4.9,1.38-5.38,1.44l.8,1.94c.88,2.1,1.77,4.21,2.58,6.31.28.73.53,1.46.79,2.19.13-.79.4-2.22.43-2.34.59-1.93,2.86-5.32,5.12-5.35a2.67,2.67,0,0,1,2.62,3c-.13,1.59-1.53,3-2.81,3.77s-4.31,1.29-5.19,1.42c.42,1.21.8,2.43,1.13,3.64.12.53.29,1.06.38,1.57s.21,1,.32,1.53.13.82.2,1.22l.84-.22c.64-2,2.13-4.53,3.95-4.84a2.67,2.67,0,0,1,3.05,2.56,3,3,0,0,1,0,.42l-6,1.6,6.67-1.78a3.31,3.31,0,0,1-.25-1,2.66,2.66,0,0,1,2.67-2.94c1.26,0,2.5,1.12,3.46,2.4l-5.8,1.55,9-2.4-.91.24c0-.15,0-.29,0-.44,0-.53,0-1,0-1.57,0-.77-.11-1.56-.19-2.36a17.24,17.24,0,0,1-5.21-.69c-1.38-.63-3-1.8-3.3-3.36a2.68,2.68,0,0,1,2.2-3.32c2.24-.27,4.95,2.78,5.79,4.61,0,.06.17.46.32.95-.09-.77-.19-1.54-.31-2.32-.35-2.21-.77-4.45-1.19-6.69-.09-.47-.17-.94-.25-1.41-.84,0-4-.07-5.37-.7s-2.94-1.8-3.29-3.35a2.67,2.67,0,0,1,2.19-3.32c2.25-.27,5,2.77,5.8,4.61,0,.06.19.55.37,1.09-.21-1.22-.4-2.45-.56-3.66a48.5,48.5,0,0,1-.41-6.3c-.47,0-4,0-5.52-.71s-3-1.79-3.3-3.35a2.68,2.68,0,0,1,2.2-3.32c2.24-.27,4.95,2.78,5.79,4.61.06.13.64,1.89.83,2.52,0,0,0,0,0-.07a35.35,35.35,0,0,1,.72-6.16,46.78,46.78,0,0,1,1.41-5.36c.52-1.63,1.09-3.1,1.61-4.39.28-.7.56-1.33.82-1.92l0,0s0-2.73,0-2.91a10.34,10.34,0,0,1,1.39-3.81,4.14,4.14,0,0,1-2.43-2.22,2.17,2.17,0,0,1,1.47-2.88c1.62-.38,3.77,1.39,4.8,2.77a2.79,2.79,0,0,1,2,2.44,3.55,3.55,0,0,1,0,.8l.55.51c.82.79,1.74,1.68,2.67,2.72a38.06,38.06,0,0,1,2.84,3.5,27.74,27.74,0,0,1,2.6,4.33l0,.06c-.07-.54-.23-2-.23-2.15,0-1.65,1-4.81,2.75-5.36a2.18,2.18,0,0,1,2.74,1.72,4.58,4.58,0,0,1-1.32,3.6,15.13,15.13,0,0,1-3.86,2.37,38.21,38.21,0,0,1,1.81,4.81c.29.95.56,1.93.82,2.9-.05-.46-.1-.87-.1-.93,0-1.65,1-4.81,2.76-5.36A2.18,2.18,0,0,1,208.8,310a4.55,4.55,0,0,1-1.32,3.59,14.19,14.19,0,0,1-3.75,2.32c.1.38.2.75.29,1.13.44,1.8.88,3.61,1.36,5.36.17.62.36,1.23.54,1.83,0-.41-.07-.76-.07-.81,0-1.64,1-4.81,2.75-5.36a2.18,2.18,0,0,1,2.74,1.72,4.58,4.58,0,0,1-1.32,3.6,13.87,13.87,0,0,1-3.63,2.26c.21.62.42,1.23.65,1.81.17.4.3.79.49,1.18s.36.77.53,1.15c.37.72.74,1.47,1.12,2.16.26.49.51.94.77,1.4-.18-.61-.5-1.82-.51-1.92-.24-1.63.25-4.91,1.91-5.72a2.18,2.18,0,0,1,3,1.29,4.55,4.55,0,0,1-.76,3.75,15.19,15.19,0,0,1-3.44,2.92c.42.76.84,1.5,1.25,2.18.88,1.5,1.7,2.8,2.41,3.91l10.78-2.88c-.24-1.27-.49-2.68-.73-4.23-.17-1.07-.34-2.22-.49-3.4-.56,0-4-.14-5.47-.85s-2.9-1.88-3.21-3.45a2.67,2.67,0,0,1,2.29-3.25c2.25-.21,4.87,2.91,5.66,4.76,0,.11.43,1.35.65,2.14-.06-.48-.13-.95-.18-1.45-.12-1-.21-2-.31-3l-.09-1.56c0-.52,0-1.07,0-1.61,0-1.26.06-2.54.15-3.82-.88.11-3.94.42-5.38,0s-3.15-1.42-3.69-2.92a2.67,2.67,0,0,1,1.77-3.56c2.19-.55,5.26,2.13,6.32,3.85.07.1.69,1.42,1,2.15.06-.77.12-1.54.2-2.32.24-2.24.56-4.51.87-6.77l.27-2.07c-.48.06-4,.48-5.57,0s-3.15-1.42-3.69-2.92a2.67,2.67,0,0,1,1.77-3.56c2.19-.55,5.25,2.13,6.32,3.85.08.13,1,2,1.18,2.51.2-1.52.37-3,.49-4.54a46.4,46.4,0,0,0,.1-6.11c-.26,0-4,.51-5.6,0-1.43-.45-3.14-1.42-3.68-2.92a2.68,2.68,0,0,1,1.76-3.57c2.19-.54,5.26,2.14,6.32,3.85.09.14,1.05,2.18,1.2,2.56,0-.12,0-.24,0-.36a33.55,33.55,0,0,0-1-6c-.27-1.09-.59-2.13-.92-3.12-.72.16-3.9.87-5.44.58s-3.28-1.07-4-2.5a2.67,2.67,0,0,1,1.36-3.74c2.12-.78,5.46,1.55,6.7,3.14.07.08.66,1,1.09,1.74l-.47-1.34c-.6-1.61-1.24-3-1.82-4.3-.33-.72-.65-1.36-.95-1.95-.77-.2-3.86-1-5.07-2s-2.42-2.45-2.38-4.05a2.67,2.67,0,0,1,2.93-2.69c2.24.28,4.13,3.89,4.5,5.87,0,.18.24,2.91.2,2.9h0c.3.57.62,1.18.95,1.86.61,1.25,1.29,2.67,1.92,4.27a50,50,0,0,1,1.79,5.24,34.78,34.78,0,0,1,1.14,6.09s0,.05,0,.07c.14-.64.59-2.44.64-2.57.71-1.89,3.2-5.12,5.46-5a2.5,2.5,0,0,1,1.38.52,2.51,2.51,0,0,1,1.21-.86c2.15-.69,5.38,1.79,6.56,3.43.08.12,1,1.74,1.28,2.33,0,0,0-.05,0-.08a33.94,33.94,0,0,1-.46-6.18,47.19,47.19,0,0,1,.37-5.53c.2-1.7.49-3.25.75-4.61.15-.74.3-1.42.44-2l0,0s-.55-2.68-.56-2.85c-.15-2,.75-6,2.84-6.84a2.68,2.68,0,0,1,3.53,1.85c.44,1.53-.37,3.32-1.26,4.53s-3.69,2.83-4.39,3.22c-.14.66-.28,1.36-.42,2.13-.23,1.37-.48,2.92-.64,4.62,0,.45-.07.94-.11,1.42.23-.79.55-1.86.6-2,.79-1.86,3.42-5,5.67-4.76a2.67,2.67,0,0,1,2.28,3.26c-.31,1.56-1.85,2.78-3.21,3.44s-4.66.82-5.4.84c-.07,1-.11,2.13-.09,3.26a35.22,35.22,0,0,0,.59,6.09l.09.35c0-.41.45-2.62.49-2.78.59-1.93,2.86-5.31,5.12-5.35a2.67,2.67,0,0,1,2.62,3c-.13,1.59-1.53,3-2.8,3.77-1.45.91-5.15,1.42-5.41,1.45a47.24,47.24,0,0,0,1.67,5.88c.5,1.42,1.07,2.84,1.65,4.26.07-.53.44-2.59.49-2.73.59-1.93,2.85-5.32,5.11-5.36a2.68,2.68,0,0,1,2.63,3c-.14,1.59-1.54,3-2.81,3.78s-4.9,1.37-5.38,1.44c.27.64.53,1.29.8,1.93.88,2.11,1.77,4.21,2.58,6.32.28.73.53,1.46.79,2.19.13-.79.39-2.23.43-2.35.59-1.93,2.86-5.31,5.12-5.35a2.68,2.68,0,0,1,2.62,3c-.13,1.59-1.53,3-2.81,3.77s-4.31,1.29-5.19,1.42c.42,1.22.8,2.43,1.13,3.65.12.52.29,1.05.38,1.57s.21,1,.31,1.53c.18,1.05.35,2,.49,3,.07.49.13,1,.2,1.44,0-.82.05-2.11.07-2.23.29-2,2-5.69,4.24-6.07a2.68,2.68,0,0,1,3,2.56c.11,1.59-1.07,3.17-2.21,4.16s-4.53,2.07-5.06,2.23c.15,1.18.29,2.34.4,3.42,0,.15,0,.3,0,.45l-1.33.35c0-.22,0-.45-.05-.68-.08-1-.18-2-.29-3.08-.57,0-4,.12-5.52-.49s-3-1.69-3.42-3.23a2.68,2.68,0,0,1,2.07-3.4c2.23-.35,5.05,2.59,6,4.39.06.11.6,1.55.86,2.29-.08-.64-.14-1.28-.23-1.95-.11-1-.27-2-.41-3-.09-.5-.18-1-.28-1.53s-.23-1-.34-1.53c-.18-.75-.41-1.51-.63-2.28a17.06,17.06,0,0,1-5.25.3c-1.47-.35-3.23-1.21-3.87-2.67a2.67,2.67,0,0,1,1.53-3.67c2.15-.69,5.38,1.79,6.56,3.43,0,.05.25.42.49.87-.24-.74-.47-1.48-.74-2.22-.76-2.11-1.6-4.22-2.44-6.35l-.51-1.33c-.83.15-3.92.68-5.4.33s-3.23-1.21-3.87-2.68a2.67,2.67,0,0,1,1.53-3.67c2.15-.69,5.38,1.79,6.56,3.43,0,.06.29.5.57,1-.44-1.16-.86-2.32-1.24-3.49a46.21,46.21,0,0,1-1.59-6.11c-.47.09-4,.75-5.56.36a6.92,6.92,0,0,1-3-1.53,6.92,6.92,0,0,1-2.53,2.26c-1.45.79-5,1.06-5.46,1.09a47.38,47.38,0,0,1,0,6.31c-.06,1.23-.17,2.46-.29,3.69.14-.55.27-1.05.29-1.11.71-1.89,3.2-5.12,5.46-5a2.68,2.68,0,0,1,2.42,3.16c-.24,1.57-1.73,2.86-3.05,3.58s-4.47,1-5.3,1.07c-.06.48-.1.95-.16,1.42-.25,2.27-.52,4.53-.71,6.76-.07.79-.11,1.56-.15,2.34.12-.49.23-.91.26-1,.71-1.89,3.19-5.12,5.45-5a2.68,2.68,0,0,1,2.42,3.16c-.24,1.58-1.72,2.86-3,3.58a17,17,0,0,1-5.15,1.06c0,.8,0,1.6,0,2.37,0,.53,0,1,.06,1.56s.09,1,.13,1.56c.11,1,.23,2,.37,3,.09.67.18,1.3.28,1.94.06-.78.21-2.31.24-2.44.41-2,2.38-5.54,4.63-5.77a2.67,2.67,0,0,1,2.87,2.75c0,1.6-1.27,3.09-2.47,4s-4.65,1.77-5.2,1.9c.16,1.06.33,2.08.51,3.05.27,1.49.54,2.85.8,4.09l45.38-12.09Zm-156,6.32a15.53,15.53,0,0,1-3.13,3.34s-.85-2.06-.88-2.19c-.43-1.59-.31-4.9,1.23-5.9a2.17,2.17,0,0,1,3.1.94A4.52,4.52,0,0,1,114.44,327.27Zm14.91,30.35a4.56,4.56,0,0,1-.76,3.75,7.12,7.12,0,0,1-1.37,1.4l-2.4.64c-.16-.6-.34-1.29-.35-1.37-.24-1.62.26-4.9,1.91-5.72A2.18,2.18,0,0,1,129.35,357.62Zm13.74-44.83c-1.28,1.23-5,2.51-5,2.51s-.1-2.73-.08-2.9c.18-2,1.73-5.78,3.93-6.27a2.67,2.67,0,0,1,3.17,2.4C145.27,310.12,144.18,311.75,143.09,312.79Zm7.93-1c-1.32-.73-2.8-2-3-3.6a2.68,2.68,0,0,1,2.45-3.14c2.25-.09,4.72,3.15,5.42,5,.06.17.71,2.83.67,2.83S152.57,312.6,151,311.75Zm30.9-2.26s-3.84-1-5.2-2.15c-1.16-1-2.37-2.51-2.29-4.11a2.67,2.67,0,0,1,3-2.62c2.23.34,4,4,4.37,6C181.82,306.76,182,309.5,181.92,309.49Zm17.49-12.88a15.25,15.25,0,0,1-3.14,3.34s-.84-2.06-.88-2.2c-.42-1.58-.3-4.9,1.24-5.9a2.18,2.18,0,0,1,3.1.95A4.56,4.56,0,0,1,199.41,296.61Zm28.65-14.48c-1.28,1.22-5,2.51-5,2.51s-.1-2.73-.09-2.91c.19-2,1.74-5.78,3.94-6.27a2.68,2.68,0,0,1,3.17,2.41C230.24,279.45,229.14,281.08,228.06,282.13Zm7.93-1c-1.32-.73-2.8-2-3-3.6a2.68,2.68,0,0,1,2.45-3.14c2.25-.1,4.72,3.15,5.42,5,.06.16.71,2.83.67,2.82S237.54,281.94,236,281.09Zm20.52,3.64a2.67,2.67,0,0,1,2.2-3.31,2.83,2.83,0,0,1,1.21.14l1.87,7a7.27,7.27,0,0,1-2-.48C258.43,287.47,256.86,286.29,256.51,284.73Zm1.43,11.64a2.67,2.67,0,0,1,2.19-3.32,4.54,4.54,0,0,1,3.21,1.34l1.59,6a12.44,12.44,0,0,1-3.7-.64C259.86,299.1,258.29,297.93,257.94,296.37Zm4.3,8.92c1.66-.2,3.59,1.43,4.81,3l1.16,4.32a16,16,0,0,1-4.87-.69c-1.38-.62-2.95-1.8-3.3-3.35A2.67,2.67,0,0,1,262.24,305.29Z" style="fill:#fff"></path><polygon points="168 351.91 168.97 351.65 168 351.91 168 351.91" style="fill:#fff"></polygon><circle cx="77.29" cy="163.17" r="15.1" transform="translate(-25.14 14.49) rotate(-9.22)" style="fill:#fff"></circle><path d="M165.81,351.13c-.09-.51-.18-1-.28-1.54s-.22-1-.34-1.52c-.18-.75-.4-1.52-.63-2.28a17.06,17.06,0,0,1-5.25.3c-1.47-.36-3.23-1.21-3.87-2.67a2.68,2.68,0,0,1,1.53-3.68c2.15-.69,5.38,1.79,6.56,3.43l.5.87c-.25-.74-.48-1.48-.75-2.22-.76-2.1-1.6-4.22-2.44-6.34l-.51-1.33c-.82.15-3.92.68-5.4.32s-3.23-1.21-3.87-2.67a2.67,2.67,0,0,1,1.53-3.67c2.15-.69,5.38,1.79,6.56,3.43,0,.05.29.5.57,1-.44-1.16-.86-2.32-1.24-3.49a46.62,46.62,0,0,1-1.59-6.11c-.47.09-4,.74-5.56.35a6.9,6.9,0,0,1-3-1.52,6.89,6.89,0,0,1-2.53,2.25c-1.45.79-5,1.06-5.46,1.09a45.89,45.89,0,0,1,0,6.32c-.06,1.22-.17,2.46-.29,3.69.14-.56.27-1.05.29-1.12.71-1.89,3.2-5.11,5.46-5a2.67,2.67,0,0,1,2.42,3.15c-.24,1.58-1.73,2.86-3.05,3.58s-4.47,1-5.3,1.08l-.15,1.42c-.26,2.27-.53,4.53-.72,6.76-.07.78-.11,1.56-.15,2.33.12-.49.23-.9.26-1,.71-1.89,3.19-5.12,5.45-5a2.66,2.66,0,0,1,2.42,3.15c-.23,1.58-1.72,2.87-3,3.58a17,17,0,0,1-5.15,1.07c0,.8,0,1.59,0,2.36,0,.53,0,1,.06,1.57s.09,1,.13,1.55c.12,1,.23,2,.37,3,.08.63.18,1.24.27,1.85l-1.21.33,2.91-.78-1.68.45c.06-.8.2-2.23.23-2.35.41-2,2.38-5.54,4.63-5.77a2.67,2.67,0,0,1,2.87,2.75c0,1.57-1.23,3-2.41,3.95l18.62-5-5,1.33a3.83,3.83,0,0,1-1-1.66,2.67,2.67,0,0,1,2.07-3.4c1.84-.3,4.08,1.66,5.32,3.36l1.05-.28C165.94,352,165.88,351.56,165.81,351.13Z" style="fill:#fff"></path><path d="M195.81,299.78c-.24-.3-.49-.61-.73-.89-.91-1.06-1.8-2-2.6-2.77l-.49-.48a5.34,5.34,0,0,1-.94,2.06,8.72,8.72,0,0,1,3.45,1.05C194.57,298.8,195.29,299.36,195.81,299.78Z" style="fill:#fff"></path></g><g id="freepik--photo-2--inject-1--inject-5"><rect x="247.11" y="155.54" width="168.22" height="225.42" transform="translate(671.97 12.22) rotate(104.08)" style="fill:#263238;stroke:#263238;stroke-miterlimit:10"></rect><rect x="254.87" y="162.49" width="152.69" height="211.5" transform="translate(671.97 12.22) rotate(104.08)" style="fill:#0067A5"></rect><path d="M396.7,361.41a4.5,4.5,0,0,1-1.14-3.59,2.14,2.14,0,0,1,2.77-1.58c1.7.62,2.54,3.77,2.48,5.39,0,.05-.05.39-.11.8.21-.59.42-1.18.62-1.78.54-1.7,1.05-3.46,1.56-5.22l.33-1.09a14.25,14.25,0,0,1-3.59-2.45,4.47,4.47,0,0,1-1.14-3.59,2.14,2.14,0,0,1,2.77-1.58c1.7.62,2.54,3.78,2.48,5.39,0,.06-.06.47-.13.92.29-.95.59-1.89.93-2.82a37.48,37.48,0,0,1,2-4.66,14.92,14.92,0,0,1-3.7-2.5,4.47,4.47,0,0,1-1.15-3.59,2.14,2.14,0,0,1,2.77-1.58c1.71.61,2.54,3.77,2.49,5.39,0,.11-.23,1.58-.33,2.1l0-.05a27.88,27.88,0,0,1,2.74-4.15,36.65,36.65,0,0,1,2.95-3.32c1-1,1.9-1.83,2.73-2.57.46-.39.89-.75,1.29-1.07h0s1-2,1-2.08a8.52,8.52,0,0,1,2.47-2.3c-7-15.4-13.76-28.75-16.14-29.34-5.76-1.44-38.1,15.09-44.57,13.66s-32.35-66.14-42.42-68.3-106.6,70.73-106.6,70.73l190,47.64c.05-.14.11-.27.17-.41A13.68,13.68,0,0,1,396.7,361.41Zm11.43-29.62a2.14,2.14,0,0,1,3.09-.79c1.48,1,1.45,4.31,1,5.85,0,.14-.93,2.15-1,2.13a15.58,15.58,0,0,1-2.94-3.42A4.48,4.48,0,0,1,408.13,331.79Zm-20.7-6a2.14,2.14,0,0,1,2.88-1.37c1.65.75,2.24,4,2.06,5.57,0,.14-.51,2.28-.54,2.27a15.68,15.68,0,0,1-3.54-2.8A4.48,4.48,0,0,1,387.43,325.76Zm-3.62-3.65a2.15,2.15,0,0,1,1.4,2.87,4.46,4.46,0,0,1-3,2.32,15.19,15.19,0,0,1-4.51,0s.92-2,1-2.11C379.58,323.8,382.05,321.66,383.81,322.11Zm-30.6,4.57c.27-1.29,1.55-3.62,3-3.78a1.75,1.75,0,0,1,1.88,1.8,3.65,3.65,0,0,1-1.61,2.61,12.55,12.55,0,0,1-3.45,1.26S353.19,326.79,353.21,326.68Zm.57,25.93a1.89,1.89,0,0,1,.76-.19,1.67,1.67,0,0,1,1.33.71Zm2.89-4.43a3.64,3.64,0,0,1-2.24,2.1,11,11,0,0,1-3.42.31c-.06.43-.11.86-.16,1.29l-.68-.17c.09-.7.19-1.41.32-2.12a11.1,11.1,0,0,1-3.48-.41,3.68,3.68,0,0,1-2.18-2.17,1.75,1.75,0,0,1,1.41-2.18c1.46-.19,3.25,1.77,3.81,3,0,.08.35,1,.51,1.48.09-.5.19-1,.3-1.49.32-1.44.7-2.89,1.06-4.33l.33-1.32a12.14,12.14,0,0,1-3.61-.42,3.65,3.65,0,0,1-2.18-2.17,1.75,1.75,0,0,1,1.41-2.18c1.46-.19,3.25,1.78,3.82,3,0,.09.48,1.38.58,1.72.24-1,.47-1.95.65-2.92a30.34,30.34,0,0,0,.52-3.95,12.33,12.33,0,0,1-3.63-.42,3.64,3.64,0,0,1-2.18-2.16,1.76,1.76,0,0,1,1.41-2.19c1.47-.19,3.25,1.78,3.82,3,0,.09.52,1.49.59,1.75a1.94,1.94,0,0,1,0-.24,22.58,22.58,0,0,0-.21-4c-.09-.73-.22-1.42-.36-2.09a11.87,11.87,0,0,1-3.57,0,3.65,3.65,0,0,1-2.4-1.91,1.76,1.76,0,0,1,1.16-2.33c1.43-.35,3.42,1.41,4.12,2.53,0,.06.35.72.57,1.21-.07-.3-.14-.62-.21-.9-.26-1.09-.57-2.06-.85-2.92-.17-.49-.33-.93-.48-1.34a11.61,11.61,0,0,1-3.14-1.66,3.67,3.67,0,0,1-1.25-2.81,1.74,1.74,0,0,1,2.1-1.52c1.44.34,2.4,2.82,2.49,4.14,0,.11-.06,1.9-.09,1.89h0c.16.39.32.81.49,1.27.3.86.63,1.83.92,2.91a32.17,32.17,0,0,1,.77,3.54,22.76,22.76,0,0,1,.29,4V335c.14-.41.57-1.54.61-1.62.6-1.17,2.45-3.08,3.91-2.84a1.74,1.74,0,0,1,1.34,2.22,3.64,3.64,0,0,1-2.25,2.1,12.26,12.26,0,0,1-3.62.3,32.47,32.47,0,0,1-.44,4.1c-.14.79-.3,1.58-.47,2.37.13-.35.25-.66.27-.7.61-1.17,2.46-3.08,3.91-2.84a1.74,1.74,0,0,1,1.34,2.22,3.64,3.64,0,0,1-2.24,2.1,11.68,11.68,0,0,1-3.52.3l-.21.91c-.33,1.46-.67,2.9-1,4.33-.1.51-.19,1-.27,1.51.12-.31.22-.57.24-.61.6-1.17,2.45-3.08,3.91-2.84A1.74,1.74,0,0,1,356.67,348.18Zm.45,5.27a2.2,2.2,0,0,1,.07-.37,2.15,2.15,0,0,1,2.81-1.51c1,.41,1.71,1.76,2.06,3.12Zm9.43,2.36a3.63,3.63,0,0,1,2.74-.41,2,2,0,0,1,1.23,1.41Zm25.33-6.56a14.66,14.66,0,0,1-4.37-.91c0,.56-.09,1.11-.13,1.67-.13,1.83-.26,3.66-.43,5.46-.07.62-.15,1.23-.23,1.85.38-.52,1.09-1.45,1.16-1.52,1.11-1.17,4-2.77,5.59-2a2.14,2.14,0,0,1,.8,3.09,4.52,4.52,0,0,1-3.37,1.68,14.4,14.4,0,0,1-4.23-.86c-.14,1-.31,2-.51,3l-.85-.21c.14-.6.26-1.22.37-1.83a14.08,14.08,0,0,1-3.87-1.69,4.48,4.48,0,0,1-1.8-3.31,2.15,2.15,0,0,1,2.42-2.08c1.79.29,3.21,3.23,3.46,4.83,0,.05,0,.39,0,.8.09-.61.19-1.23.27-1.86.21-1.78.37-3.6.55-5.42,0-.38.07-.76.11-1.14a14.35,14.35,0,0,1-4-1.72,4.49,4.49,0,0,1-1.81-3.31,2.15,2.15,0,0,1,2.42-2.08c1.79.29,3.21,3.23,3.46,4.83,0,.06,0,.47.05.93.1-1,.22-2,.37-3a38.75,38.75,0,0,1,1.07-4.95,15,15,0,0,1-4.11-1.75,5.63,5.63,0,0,1-1.61-2.19,5.65,5.65,0,0,1-2.63.7,14.73,14.73,0,0,1-4.3-1.2,38.23,38.23,0,0,1-2.26,4.53c-.49.86-1,1.7-1.55,2.54.3-.35.58-.65.62-.69,1.19-1.1,4.14-2.51,5.71-1.61a2.14,2.14,0,0,1,.6,3.13,4.52,4.52,0,0,1-3.48,1.46,14.11,14.11,0,0,1-4.19-1.15c-.2.32-.41.65-.62,1-1,1.54-2,3.06-3,4.58-.33.54-.64,1.08-1,1.62l.54-.6c1.19-1.09,4.14-2.5,5.71-1.61a2.14,2.14,0,0,1,.59,3.14,4.49,4.49,0,0,1-3.47,1.46,13.8,13.8,0,0,1-4.08-1.11c-.3.57-.6,1.13-.87,1.69-.17.38-.36.74-.51,1.14l-.27.65-.9-.22.34-.78c.16-.38.37-.77.56-1.16.45-.9.95-1.79,1.48-2.68a14.17,14.17,0,0,1-3.84-2,4.45,4.45,0,0,1-1.58-3.42,2.14,2.14,0,0,1,2.55-1.91c1.77.4,3,3.43,3.13,5,0,.1,0,1.27,0,1.91.32-.53.63-1.06,1-1.59,1-1.52,2-3,3.06-4.53l1-1.39a14.82,14.82,0,0,1-4-2,4.48,4.48,0,0,1-1.58-3.42,2.14,2.14,0,0,1,2.55-1.91c1.77.4,3,3.43,3.14,5,0,.12,0,1.8-.07,2.23.69-1,1.37-2,2-3.08a40,40,0,0,0,2.28-4.33,15.13,15.13,0,0,1-4-2,4.45,4.45,0,0,1-1.58-3.42,2.14,2.14,0,0,1,2.55-1.92c1.77.4,3,3.43,3.13,5.05,0,.12,0,1.93-.06,2.26a2.06,2.06,0,0,1,.12-.26,26.83,26.83,0,0,0,1.46-4.69c.21-.88.35-1.73.48-2.57a14.39,14.39,0,0,1-4.11-1.55,4.52,4.52,0,0,1-2-3.23,2.14,2.14,0,0,1,2.33-2.18c1.8.2,3.35,3.08,3.67,4.67,0,.08.09,1,.14,1.63,0-.37.11-.76.15-1.12.16-1.37.21-2.62.26-3.73,0-.64,0-1.21,0-1.75a14.47,14.47,0,0,1-2.91-3.25,4.44,4.44,0,0,1-.24-3.76,2.14,2.14,0,0,1,3.07-.87c1.5,1,1.55,4.28,1.1,5.84,0,.13-.88,2.16-.91,2.14l0,0c0,.52,0,1.07,0,1.68,0,1.11-.05,2.37-.17,3.74a37.75,37.75,0,0,1-.62,4.4,27.26,27.26,0,0,1-1.38,4.78.08.08,0,0,1,0,.05c.33-.41,1.31-1.53,1.39-1.61,1.19-1.09,4.14-2.5,5.71-1.61a1.28,1.28,0,0,0,2,.7c1.79.28,3.21,3.22,3.46,4.82,0,.12.08,1.6.08,2.13a.13.13,0,0,0,0-.06,28.46,28.46,0,0,1,1.91-4.59,37.43,37.43,0,0,1,2.27-3.82c.75-1.15,1.52-2.15,2.2-3,.37-.48.72-.91,1.06-1.3h0s.57-2.12.63-2.25c.62-1.49,2.69-4,4.5-3.86a2.14,2.14,0,0,1,1.86,2.59,4.5,4.5,0,0,1-2.54,2.79,14.25,14.25,0,0,1-4.31.72c-.33.42-.69.87-1.07,1.38-.66.89-1.4,1.91-2.13,3.07l-.59,1c.45-.48,1.07-1.13,1.14-1.18,1.24-1,4.24-2.32,5.78-1.36a2.15,2.15,0,0,1,.45,3.16,4.46,4.46,0,0,1-3.54,1.3,14.56,14.56,0,0,1-4.17-1.35c-.43.73-.85,1.49-1.24,2.3a28.88,28.88,0,0,0-1.78,4.58l-.06.28c.17-.28,1.27-1.72,1.36-1.81,1.11-1.17,4-2.77,5.59-2a2.14,2.14,0,0,1,.8,3.09,4.46,4.46,0,0,1-3.38,1.68,15,15,0,0,1-4.39-.92,36.86,36.86,0,0,0-.92,4.81c-.16,1.2-.27,2.42-.37,3.65.24-.35,1.26-1.69,1.34-1.78,1.12-1.17,4-2.77,5.6-2a2.15,2.15,0,0,1,.8,3.09A4.49,4.49,0,0,1,391.88,349.25Z" style="fill:#fff"></path><path d="M420.8,334.33a14.29,14.29,0,0,1-4.37-.11l-1.31,1.15c-.82.76-1.74,1.61-2.67,2.62-.25.26-.51.56-.76.84.53-.39,1.26-.91,1.34-.95,1.41-.79,4.6-1.48,5.93-.24a2.15,2.15,0,0,1-.15,3.19,4.49,4.49,0,0,1-3.73.61,14.62,14.62,0,0,1-3.84-2.12c-.55.64-1.11,1.3-1.65,2A27.1,27.1,0,0,0,407,345.5c-.05.09-.08.18-.12.27.23-.24,1.57-1.45,1.68-1.52,1.32-.94,4.41-2,5.87-.89a2.16,2.16,0,0,1,.2,3.19,4.48,4.48,0,0,1-3.64,1,15.41,15.41,0,0,1-4.14-1.73,36.85,36.85,0,0,0-1.81,4.55c-.39,1.14-.73,2.32-1,3.51.3-.3,1.55-1.43,1.65-1.5,1.32-.93,4.42-2,5.87-.88a2.13,2.13,0,0,1,.2,3.18,4.51,4.51,0,0,1-3.63,1,15,15,0,0,1-4.12-1.72l-.45,1.61c-.47,1.77-.94,3.54-1.45,5.28-.18.6-.38,1.18-.58,1.77.47-.44,1.34-1.21,1.43-1.27,1.32-.94,4.41-2,5.87-.89a2.15,2.15,0,0,1,.2,3.18,4.49,4.49,0,0,1-3.64,1,14.11,14.11,0,0,1-4-1.65c-.16.47-.35.91-.52,1.37l-.54-.14L415.22,368,423,337,421.7,334A6.2,6.2,0,0,1,420.8,334.33Z" style="fill:#fff"></path><path d="M432.29,268.89c-3.32-3.09-5.53-1.79-6.49-3.9s5.48-5.34-3.89-12.59c0,0,1.81-10-12.5-14s-13,7.14-17.54,8.61-4.55-2.66-9-1.19-4,6.84-7.33,6.73-6.57-5-11.06-3.57-5,3.58-6.79,3.13-4.91-2.75-7.37-1.88-5.38,2-5.38,2l88.85,22.7S435.62,272,432.29,268.89Z" style="fill:#fff"></path><circle cx="273.54" cy="206.31" r="15.1" transform="translate(-29.39 46.25) rotate(-9.17)" style="fill:#fff"></circle></g><g id="freepik--character-1--inject-1--inject-5"><ellipse cx="175.25" cy="403.8" rx="50.8" ry="10.71" style="fill:#0067A5"></ellipse><ellipse cx="175.25" cy="403.8" rx="50.8" ry="10.71" style="fill:#fff;opacity:0.6000000000000001"></ellipse><path d="M182.53,166.05a37.2,37.2,0,0,1-2.48,11.53c-2.4,6.24-12.48,3.36-18.24,6.72s-3.84,11-4.8,13.44-3.08,7.67-1.16,11.51,8,.53,7.34,11.08c-.2,3.47-6.34,18.36-6.34,18.36s1.71,3.55,10.4,4.89c29.08,4.48,23.19-5,23.19-5s-2.36-4.33,3.87-19.65c5-12.27,15-21.69,15-29.85s-10.58-9.92-13.92-9.6c-9.93,1-4.61-14.45-1.73-17.81S182.53,166.05,182.53,166.05Z" style="fill:#fff"></path><g style="clip-path:url(#freepik--clip-path--inject-1--inject-5)"><path d="M188.49,187.36s1.27-4.22,2.72-9c-3.49-3.3-.28-12.72,2-16.1a13.35,13.35,0,0,0-2.71-.3c-3.4,1.53-8,4.07-8,4.07a28,28,0,0,1-.34,3.43l6,.19s-4.1,9.48-4.87,14.1S188.49,187.36,188.49,187.36Z" style="fill:#0067A5;opacity:0.5;mix-blend-mode:multiply"></path><path d="M199.77,184.8s2.57,1.79,1.54,7.69-31,16.41-35.13,17.18-25.39-12.31-25.39-12.31,14.87,14.37,19.74,14.88,32.58-6.93,32.58-6.93,4,3.72,7,3.66c0,0,7.89-13.66,8.92-17.25s.68-8.52-2.31-8.46A25.46,25.46,0,0,0,199.77,184.8Z" style="fill:#0067A5;opacity:0.5;mix-blend-mode:multiply"></path></g><path d="M182.53,166.05a37.2,37.2,0,0,1-2.48,11.53c-2.4,6.24-12.48,3.36-18.24,6.72s-3.84,11-4.8,13.44-3.08,7.67-1.16,11.51,8,.53,7.34,11.08c-.2,3.47-6.34,18.36-6.34,18.36s1.71,3.55,10.4,4.89c29.08,4.48,23.19-5,23.19-5s-2.36-4.33,3.87-19.65c5-12.27,15-21.69,15-29.85s-10.58-9.92-13.92-9.6c-9.93,1-4.61-14.45-1.73-17.81S182.53,166.05,182.53,166.05Z" style="fill:none;stroke:#263238;stroke-linecap:round;stroke-linejoin:round"></path><path d="M190.44,238.6s5.44,10.51-23.19,5c-8.64-1.67-10.4-4.89-10.4-4.89s6.14-14.89,6.34-18.36c.62-10.55-5.42-7.24-7.34-11.08a7.5,7.5,0,0,1-.37-.93c.75-4.09,1-7.28,1.19-9.73.12-.31.24-.59.34-.85a10.76,10.76,0,0,0,.36-3,4.57,4.57,0,0,1,.61-1.21c1.9-2.53,11.11-8.18,13.58-10.68,1.18-.15,2.87-1,4-1.18-4.87,5-11,10.63-5.91,11.82,6.88,1.62,19.9-8.47,19.9-8.47L192.4,181l2,2.43s-8.51,11.75-4.05,19.44a12.1,12.1,0,0,0,9.71,6.15c-2,3.16-4.32,6.34-5.78,10C188.68,233.07,190.44,238.6,190.44,238.6Z" style="fill:#fff"></path><g style="clip-path:url(#freepik--clip-path-2--inject-1--inject-5)"><path d="M187.72,206.6s.77,6.15-4.36,6.66-21.54,0-16.16,4.11,16.16,4.36,18,4.87-4.62,13.34-4.62,13.34l9.49,1s3.33-15.64,5.13-20.26a29.92,29.92,0,0,1,4.1-7.44l-6.15-3.59Z" style="fill:#0067A5;opacity:0.5;mix-blend-mode:multiply"></path></g><path d="M190.44,238.6s5.44,10.51-23.19,5c-8.64-1.67-10.4-4.89-10.4-4.89s6.14-14.89,6.34-18.36c.62-10.55-5.42-7.24-7.34-11.08a7.5,7.5,0,0,1-.37-.93c.75-4.09,1-7.28,1.19-9.73.12-.31.24-.59.34-.85a10.76,10.76,0,0,0,.36-3,4.57,4.57,0,0,1,.61-1.21c1.9-2.53,11.11-8.18,13.58-10.68,1.18-.15,2.87-1,4-1.18-4.87,5-11,10.63-5.91,11.82,6.88,1.62,19.9-8.47,19.9-8.47L192.4,181l2,2.43s-8.51,11.75-4.05,19.44a12.1,12.1,0,0,0,9.71,6.15c-2,3.16-4.32,6.34-5.78,10C188.68,233.07,190.44,238.6,190.44,238.6Z" style="fill:none;stroke:#263238;stroke-linecap:round;stroke-linejoin:round"></path><path d="M155.71,207a323.87,323.87,0,0,1,42.52,4.81c.63-1,1.26-1.92,1.86-2.87a12.56,12.56,0,0,1-6.48-2.44,327.21,327.21,0,0,0-37.32-3.93C156.15,203.93,156,205.4,155.71,207Z" style="fill:#263238"></path><path d="M189.57,185s-.69.54-1.83,1.34c1.5.2,3,.42,4.5.64a35,35,0,0,1,2.19-3.6l-.55-.65-2.46-.38Z" style="fill:#263238"></path><path d="M161.51,226.48c-.49,1.41-1,2.91-1.57,4.35a298,298,0,0,1,30.31,3.5,34.75,34.75,0,0,1,.64-4.4Q176.39,227.5,161.51,226.48Z" style="fill:#263238"></path><path d="M172.69,184.6c.95-1,1.94-2,2.89-2.95-1.15.14-2.84,1-4,1.18a17,17,0,0,1-1.79,1.52Z" style="fill:#263238"></path><path d="M189.53,194q-6.28-.92-12.63-1.6c-2.61,1-5.19,1.56-7.23,1.08-1.41-.34-1.95-1-1.9-1.93q-3.54-.28-7.11-.49a16.26,16.26,0,0,0-2.68,2.46,4.57,4.57,0,0,0-.61,1.21c0,.21,0,.4,0,.6q16,.8,31.78,3.11A15.89,15.89,0,0,1,189.53,194Z" style="fill:#263238"></path><path d="M162.6,214.76a11.81,11.81,0,0,1,.63,4.51q15,1.08,29.65,3.57c.42-1.22.88-2.5,1.43-3.89l.15-.34A316.68,316.68,0,0,0,162.6,214.76Z" style="fill:#263238"></path><path d="M138.59,195.81c7.33-6.87,26-20.1,28.27-23.32,1.68-2.4,2.29-8.35,2.49-11.26a3,3,0,0,1,1.63-2.46c1.6-.83,4-2,4.61-1.76,1,.32-1.62,5.8-1.29,7.09s-.33,5.81-.33,5.81c-.29.58.25-.62,0,0,2.64-1.81.06-.06,2.59-2.58s1.94.64,1.94.64-1,4.19-2.58,6.13-5.5,2.9-5.5,2.9c-1.62,1.29-21.91,30-27.95,35.15S130,219,128.24,213.44,131.26,202.69,138.59,195.81Z" style="fill:#fff"></path><g style="clip-path:url(#freepik--clip-path-3--inject-1--inject-5)"><path d="M174.63,159.44s-3,.09-2.56,2.94.45,8.64-.25,9.86-4.56,4.21-5.09,5.09-26.49,31.93-30.35,35.09c-2.59,2.12-6.14-.67-8.34-2.79a7.72,7.72,0,0,0,.2,3.81c1.72,5.59,8.19,3.87,14.23-1.29S168.8,178.29,170.42,177c0,0,3.88-1,5.5-2.9S178.5,168,178.5,168s.65-3.22-1.94-.64.05.77-2.59,2.58c.11-.27.07-.19,0-.08.08-.57.62-4.53.32-5.73-.22-.86.87-3.6,1.32-5.42Z" style="fill:#0067A5;opacity:0.5;mix-blend-mode:multiply"></path></g><path d="M138.59,195.81c7.33-6.87,26-20.1,28.27-23.32,1.68-2.4,2.29-8.35,2.49-11.26a3,3,0,0,1,1.63-2.46c1.6-.83,4-2,4.61-1.76,1,.32-1.62,5.8-1.29,7.09s-.33,5.81-.33,5.81c-.29.58.25-.62,0,0,2.64-1.81.06-.06,2.59-2.58s1.94.64,1.94.64-1,4.19-2.58,6.13-5.5,2.9-5.5,2.9c-1.62,1.29-21.91,30-27.95,35.15S130,219,128.24,213.44,131.26,202.69,138.59,195.81Z" style="fill:none;stroke:#263238;stroke-linecap:round;stroke-linejoin:round"></path><path d="M173.5,160.56s-1.3,1-1.43,1.82.26,7.15-.26,9.23a4,4,0,0,1-1.95,2.73" style="fill:none;stroke:#263238;stroke-linecap:round;stroke-linejoin:round;stroke-width:0.5px"></path><path d="M193.72,133.21a13.83,13.83,0,0,1,9.6,6.7c5.4,8.72-7.55,22.84-12.94,24.92s-14.46,5.8-15.71,1.23-.83-11.62,2.91-22.41C180.21,136,187.23,132.16,193.72,133.21Z" style="fill:#fff"></path><g style="clip-path:url(#freepik--clip-path-4--inject-1--inject-5)"><path d="M184.44,167c2.1-.67,4.21-1.51,5.94-2.17,5.39-2.08,18.34-16.2,12.94-24.92a13.83,13.83,0,0,0-9.6-6.7,14.25,14.25,0,0,0-12.7,4.63l2.85,3.1a12.08,12.08,0,0,1,7.44,10.26" style="fill:#0067A5;opacity:0.5;mix-blend-mode:multiply"></path></g><path d="M193.72,133.21a13.83,13.83,0,0,1,9.6,6.7c5.4,8.72-7.55,22.84-12.94,24.92s-14.46,5.8-15.71,1.23-.83-11.62,2.91-22.41C180.21,136,187.23,132.16,193.72,133.21Z" style="fill:none;stroke:#263238;stroke-linecap:round;stroke-linejoin:round"></path><path d="M180.07,155.84l-1.52-1a1.12,1.12,0,0,1-.21-1.69c.23-.25.5-.56.78-.93,1-1.27,1.12-4.06,1.12-4.06s-.42-3.7-2.44-2.58" style="fill:none;stroke:#263238;stroke-linecap:round;stroke-linejoin:round;stroke-width:0.5px"></path><path d="M178.78,159.8a3.34,3.34,0,0,0,4.58.08" style="fill:none;stroke:#263238;stroke-linecap:round;stroke-linejoin:round;stroke-width:0.5px"></path><path d="M184.75,147.37s2.92-2.7,6.06.89" style="fill:none;stroke:#263238;stroke-linecap:round;stroke-linejoin:round;stroke-width:0.5px"></path><path d="M185,151.56c-.08.93.21,1.71.64,1.74s.85-.68.92-1.61-.21-1.7-.64-1.74S185.06,150.63,185,151.56Z" style="fill:#263238"></path><path d="M177.38,150.33c-.08.93.21,1.71.64,1.74s.85-.68.93-1.61-.21-1.7-.64-1.74S177.46,149.41,177.38,150.33Z" style="fill:#263238"></path><path d="M182.26,393.46s2.18,5.15,1.87,7.19-1.26,3.14-2.36,3.14-4.08-.63-6.75,0a30.69,30.69,0,0,1-8.32.78c-2.51-.16-4.08-2.2-2.36-2.82s8-4.41,9.53-7.95Z" style="fill:#fff"></path><g style="clip-path:url(#freepik--clip-path-5--inject-1--inject-5)"><path d="M173.19,395.67l7.29,1.69a8,8,0,0,1-.51,3.39c-.68,1.7-6.44,2.71-6.44,2.71s6.82.82,8.24.33,2.44-2.7,1.59-6.09-1.1-4.24-1.1-4.24l-8.57.83Z" style="fill:#0067A5;opacity:0.5;mix-blend-mode:multiply"></path></g><path d="M182.26,393.46s2.18,5.15,1.87,7.19-1.26,3.14-2.36,3.14-4.08-.63-6.75,0a30.69,30.69,0,0,1-8.32.78c-2.51-.16-4.08-2.2-2.36-2.82s8-4.41,9.53-7.95Z" style="fill:none;stroke:#263238;stroke-linecap:round;stroke-linejoin:round"></path><path d="M142.6,390.39a31.43,31.43,0,0,0-.35,5.48c.17,2.11.65,4.91.65,7.51s.33,6,2.27,7.11,7.46-.67,7.3-5.86a36,36,0,0,0-2.6-11.39,15.15,15.15,0,0,1-.83-3.4Z" style="fill:#fff"></path><g style="clip-path:url(#freepik--clip-path-6--inject-1--inject-5)"><path d="M149.87,393.24a15.15,15.15,0,0,1-.83-3.4l-6.44.55s0,.22-.08.57l4.39,1.82s2.72,9.5,3.56,11.87a4.14,4.14,0,0,1-2.2,5.26c-.67.36-1.37.64-2,.89a5.94,5.94,0,0,0,6.16-6.17A36,36,0,0,0,149.87,393.24Z" style="fill:#0067A5;opacity:0.5;mix-blend-mode:multiply"></path></g><path d="M142.6,390.39a31.43,31.43,0,0,0-.35,5.48c.17,2.11.65,4.91.65,7.51s.33,6,2.27,7.11,7.46-.67,7.3-5.86a36,36,0,0,0-2.6-11.39,15.15,15.15,0,0,1-.83-3.4Z" style="fill:none;stroke:#263238;stroke-linecap:round;stroke-linejoin:round"></path><path d="M157.22,236.45c1.59-2.67,31.67-.8,32.66,1.12,0,0,4.35,5.84,6.76,20.62,1.6,9.89-3.16,18.54-11.11,28.88-4.17,5.41-.85,4.33-2.31,6.7.54,9.53,2.11,36.07,3.35,45.14,1.52,11.14-1.52,54.18-1.52,54.18l-2.76.15,0,.22-15.95.65a262.44,262.44,0,0,0,1-28.87c-.51-12.66-7.09-49.12-7.09-49.12l.76-.86c-3.11-14.48-6.12-20.9-7-29.84C150.61,249.43,157.18,236.53,157.22,236.45Z" style="fill:#fff"></path><g style="clip-path:url(#freepik--clip-path-7--inject-1--inject-5)"><path d="M195.93,269.17c1.28-4.87.77-11,.25-15.38S190,236.6,190,236.6s-12.83,0-15.13-.77c0,0-3.59,0-1.29,1s7.7,0,8.21,1.54-10.77,5.9-9,6.15,13.08-3.33,14.11.26-10.77,5.13-8.72,5.39,6.41-.52,7.69.25,1,1.54-.25,1.54-7.18,1.54-6.16,2.31,9,4.36,8.72,7.18-15.9,31.55-19.49,39.24-11,22.31-14.1,26.67-.52,8.47.25,10-.51,4.62,0,10.78-1,41.29-1,41.29l5.86-.92s1.06-48.32,3.11-54c1.53-4.2,3.75-9.84,5-13.5,2.05,4.87,8,19.22,9.31,23.25,1.54,4.87-4.61-5.39-3.84.25s4.1,40.78,4.1,43.09a36.25,36.25,0,0,0,.77,5.9l6.82-.47s2.93-40.31,2.16-50.57-2.82-23.85-2.82-23.85l-1.17-24.9-1.91,2.59S194.64,274.05,195.93,269.17Z" style="fill:#0067A5;opacity:0.5;mix-blend-mode:multiply"></path></g><path d="M157.22,236.45c1.59-2.67,31.67-.8,32.66,1.12,0,0,4.35,5.84,6.76,20.62,1.6,9.89-3.16,18.54-11.11,28.88-4.17,5.41-.85,4.33-2.31,6.7.54,9.53,2.11,36.07,3.35,45.14,1.52,11.14-1.52,54.18-1.52,54.18l-2.76.15,0,.22-15.95.65a262.44,262.44,0,0,0,1-28.87c-.51-12.66-7.09-49.12-7.09-49.12l.76-.86c-3.11-14.48-6.12-20.9-7-29.84C150.61,249.43,157.18,236.53,157.22,236.45Z" style="fill:none;stroke:#263238;stroke-linecap:round;stroke-linejoin:round"></path><path d="M175.15,309.26S173,328.66,177,342.2s2.19,46.1,2.19,46.1" style="fill:none;stroke:#263238;stroke-linecap:round;stroke-linejoin:round;stroke-width:0.5px"></path><path d="M191.71,277.37s-14,25.29-22.86,40.78c-4.84,8.44-5.57,15.7-6.59,18.74s-2.53,51.65-2.53,51.65l-17.13,1.85s-2.15-62.58,1.67-73,28.12-59.52,28.12-59.52" style="fill:#fff"></path><g style="clip-path:url(#freepik--clip-path-8--inject-1--inject-5)"><path d="M195.93,269.17c1.28-4.87.77-11,.25-15.38S190,236.6,190,236.6s-12.83,0-15.13-.77c0,0-3.59,0-1.29,1s7.7,0,8.21,1.54-10.77,5.9-9,6.15,13.08-3.33,14.11.26-10.77,5.13-8.72,5.39,6.41-.52,7.69.25,1,1.54-.25,1.54-7.18,1.54-6.16,2.31,9,4.36,8.72,7.18-15.9,31.55-19.49,39.24-11,22.31-14.1,26.67-.52,8.47.25,10-.51,4.62,0,10.78-1,41.29-1,41.29l5.86-.92s1.06-48.32,3.11-54c1.53-4.2,3.75-9.84,5-13.5,2.05,4.87,8,19.22,9.31,23.25,1.54,4.87-4.61-5.39-3.84.25s4.1,40.78,4.1,43.09a36.25,36.25,0,0,0,.77,5.9l6.82-.47s2.93-40.31,2.16-50.57-2.82-23.85-2.82-23.85l-1.17-24.9-1.91,2.59S194.64,274.05,195.93,269.17Z" style="fill:#0067A5;opacity:0.5;mix-blend-mode:multiply"></path></g><path d="M191.71,277.37s-14,25.29-22.86,40.78c-4.84,8.44-5.57,15.7-6.59,18.74s-2.53,51.65-2.53,51.65l-17.13,1.85s-2.15-62.58,1.67-73,28.12-59.52,28.12-59.52" style="fill:none;stroke:#263238;stroke-linecap:round;stroke-linejoin:round"></path><path d="M176.61,254.75s4.76-5.13,13.18-1.83" style="fill:none;stroke:#263238;stroke-linecap:round;stroke-linejoin:round;stroke-width:0.5px"></path><path d="M174.05,253.65a14,14,0,0,1,11.71-5.49" style="fill:none;stroke:#263238;stroke-linecap:round;stroke-linejoin:round;stroke-width:0.5px"></path><path d="M166.73,314s-11,16.1-10.24,20.13,1.83,8.05,1.46,14.27.73,38.05.73,38.05" style="fill:none;stroke:#263238;stroke-linecap:round;stroke-linejoin:round;stroke-width:0.5px"></path><line x1="168.56" y1="312.56" x2="176.98" y2="299.75" style="fill:none;stroke:#263238;stroke-linecap:round;stroke-linejoin:round;stroke-width:0.5px"></line><path d="M165.64,237.18s-2.2,10.25-2.2,17.57,1.1,6.95,1.1,6.95" style="fill:none;stroke:#263238;stroke-linecap:round;stroke-linejoin:round;stroke-width:0.5px"></path><rect x="114.35" y="144.23" width="10.56" height="22.08" rx="2.23" transform="translate(157.46 347.6) rotate(-153.51)" style="fill:#fff;stroke:#263238;stroke-linecap:round;stroke-linejoin:round"></rect><path d="M193.26,186.26,164.54,200,119.82,172.3a32.5,32.5,0,0,1,2.46-8.21,6.92,6.92,0,0,0,0-5.54c-.62-1.54-.92.92-1.54,2.46s-2.15,3.7-4.31,3.7-3.08-3.39-2.46-4.31,2.46-5.24,2.15-7.39-3.08,2.15-3.08,2.15-4.62,3.7-4.62,4.93S110,168.4,110,170.25s5.55,4.62,5.55,4.62,34.1,31.7,41,36,20.32-.86,29-3.45A115.69,115.69,0,0,1,199.74,204" style="fill:#fff"></path><g style="clip-path:url(#freepik--clip-path-9--inject-1--inject-5)"><path d="M193.26,186.26,164.54,200,119.82,172.3a32.5,32.5,0,0,1,2.46-8.21,6.92,6.92,0,0,0,0-5.54c-.62-1.54-.92.92-1.54,2.46s-2.15,3.7-4.31,3.7-3.08-3.39-2.46-4.31,2.46-5.24,2.15-7.39-3.08,2.15-3.08,2.15-4.62,3.7-4.62,4.93S110,168.4,110,170.25s5.55,4.62,5.55,4.62,34.1,31.7,41,36,20.32-.86,29-3.45A115.69,115.69,0,0,1,199.74,204" style="fill:#fff;stroke:#263238;stroke-linecap:round;stroke-linejoin:round"></path><path d="M199.77,184.8s2.57,1.79,1.54,7.69-31,16.41-35.13,17.18-25.39-12.31-25.39-12.31,14.87,14.37,19.74,14.88,32.58-6.93,32.58-6.93,4,3.72,7,3.66c0,0,7.89-13.66,8.92-17.25s.68-8.52-2.31-8.46A25.46,25.46,0,0,0,199.77,184.8Z" style="fill:#0067A5;opacity:0.5;mix-blend-mode:multiply"></path></g><path d="M193.26,186.26,164.54,200,119.82,172.3a32.5,32.5,0,0,1,2.46-8.21,6.92,6.92,0,0,0,0-5.54c-.62-1.54-.92.92-1.54,2.46s-2.15,3.7-4.31,3.7-3.08-3.39-2.46-4.31,2.46-5.24,2.15-7.39-3.08,2.15-3.08,2.15-4.62,3.7-4.62,4.93S110,168.4,110,170.25s5.55,4.62,5.55,4.62,34.1,31.7,41,36,20.32-.86,29-3.45A115.69,115.69,0,0,1,199.74,204" style="fill:none;stroke:#263238;stroke-linecap:round;stroke-linejoin:round"></path><path d="M113,155.16s-2.05,3-2.05,4.19v2.4" style="fill:none;stroke:#263238;stroke-linecap:round;stroke-linejoin:round;stroke-width:0.5px"></path><path d="M174.48,144.21c.18-1.22,1.35-2.33,2.88-3.28-14.32-16.64,26.12-16.6,29.79-.22,1.94,8.68-1.66,8.46,4,16.29s10.55,8.48,11,16c.71,11.38-7.82,10-6.76,21.34s17.07,20.26,4.63,34.13-28-1.51-28-1.51-1.13-6,15.4-31.13c3.6-5.48,1.53-12.52-3.8-12.52-2.48,0-5.81,2.16-8.59,3.57a7.1,7.1,0,0,1-3.14,1.58c-3.55.48-5.45-2.36-5.92-6.87s1.51-8.43,3.27-11.36c3.14-5.23,4.31-14.93,4.31-14.93l.09,0c.26-4.88-.08-8.78-1.67-10.18-10.06-8.88-14.48-1.5-14.48-1.5a79.14,79.14,0,0,0-2.28,7.75C174.44,149.8,174,147.52,174.48,144.21Z" style="fill:#263238"></path><path d="M181.76,140.75s-6.38-3.5-2.67-5.35,9.26,6,9.26,6" style="fill:none;stroke:#fff;stroke-linecap:round;stroke-linejoin:round;stroke-width:0.5px"></path><path d="M179.09,135.4s-.83-5.56,9.46.2,10.49,11.11,11.11,21.2-11.73,20.57-11.11,25.51,7.82,1,7.82,1" style="fill:none;stroke:#fff;stroke-linecap:round;stroke-linejoin:round;stroke-width:0.5px"></path><path d="M201.1,142.6s5.35,6.79,6,13.17-2.47,11.52-.62,15.84,8.64,7.2,7.61,15.43-6.79,15-3.49,20.16,7.81,15.23,2.67,21.81-17.49,2.88-18.93-3.5,7.41-8.64,9.88-4.52-2.68,7.41-4.32,5.35,1.23-3.71,1.23-3.71" style="fill:none;stroke:#fff;stroke-linecap:round;stroke-linejoin:round;stroke-width:0.5px"></path></g><g id="freepik--character-2--inject-1--inject-5"><ellipse cx="312.27" cy="403.8" rx="76.02" ry="10.71" style="fill:#0067A5"></ellipse><ellipse cx="312.27" cy="403.8" rx="76.02" ry="10.71" style="fill:#fff;opacity:0.6000000000000001"></ellipse><path d="M349.31,289.69c-3.9-2.93-14.2,4.74-39.59,4a40.17,40.17,0,0,0-9,.82c-9.58-.05-21.23,7-21.23,7S261.87,316.15,261.87,321s18.07,30.76,19,35.64c.4,2,2.21,9.55,1.75,15.3-4.7.51-34.73-.85-38.52,5.3-3,4.86,21.71,10.36,36.08,11a10.53,10.53,0,0,0,1.18,3.56c3.91,6.34,18.06,6.83,28.32,4.88s13.71-.56,16.64-12.77-6-22.83-7.8-37.45c-.65-5.28-.67-21.87-3.37-34.73,9.47-2.62,33.13-9.39,35.86-12.11C354.47,296.22,353.22,292.62,349.31,289.69Z" style="fill:#fff;stroke:#263238;stroke-miterlimit:10"></path><path d="M349.31,289.69c-3.9-2.93-14.2,4.74-39.59,4a40.17,40.17,0,0,0-9,.82c-9.58-.05-21.23,7-21.23,7S261.87,316.15,261.87,321s18.07,30.76,19,35.64c.4,2,2.21,9.55,1.75,15.3-.55.06-1.47.09-2.65.12,11.93,12.8,29,17.76,36.47,10.28a48.85,48.85,0,0,0,8.94-12.59c-2.11-7.13-5.79-14.49-6.86-23.3-.65-5.28-.67-21.87-3.37-34.73,9.47-2.62,33.13-9.39,35.86-12.11C354.47,296.22,353.22,292.62,349.31,289.69Z" style="fill:#fff"></path><g style="clip-path:url(#freepik--clip-path-10--inject-1--inject-5)"><path d="M275.38,313.18A22.62,22.62,0,0,0,269.43,326c-1.09,8.2,8.21,36.92,8.21,36.92s-1.37,3.56-.55,3.83,1.91-.27,3.83-.27S303.07,350,303.07,350s-15.86,20.24-17.23,21.88-4.1,6.29-7.11,6.29-5.47-6.84-5.47-6.84l-10.12-26.8-3-13.41a21.23,21.23,0,0,1-.55-8.75c.82-4.1,7.94-10.94,7.94-10.94l4.65-3.45s2.46,5.36,4.1,5.64" style="fill:#0067A5;opacity:0.5;mix-blend-mode:multiply"></path><path d="M337.81,291.21l-4.92,6.84s.54-3.56-.82-3-9,8.48-9.85,9.57.55-3.83-2.19-1.64-5.2,7.93-5.2,7.93,3.29.28,11.22-1.64,22-8.43,23.52-9-6.56-9.58-7.38-10.4S337.81,291.21,337.81,291.21Z" style="fill:#0067A5;opacity:0.5;mix-blend-mode:multiply"></path><path d="M308.82,379.56c-3.83-.82-.55-2.47,1.36-5.75s7.94-11.21,3.29-5.19-15.87,10.66-16.41,9,8.2-4.65,8.2-4.65-12,1.64-13.67.55,4.1-14.5,4.1-14.5l-13,9.23a28.42,28.42,0,0,1,0,3.7c-.55.06-1.47.09-2.65.12,11.93,12.8,29,17.76,36.47,10.28a46.71,46.71,0,0,0,6.73-8.63,1.46,1.46,0,0,0,.1-.2S312.65,380.38,308.82,379.56Z" style="fill:#0067A5;opacity:0.5;mix-blend-mode:multiply"></path></g><path d="M349.31,289.69c-3.9-2.93-14.2,4.74-39.59,4a40.17,40.17,0,0,0-9,.82c-9.58-.05-21.23,7-21.23,7S261.87,316.15,261.87,321s18.07,30.76,19,35.64c.4,2,2.21,9.55,1.75,15.3-.55.06-1.47.09-2.65.12,11.93,12.8,29,17.76,36.47,10.28a48.85,48.85,0,0,0,8.94-12.59c-2.11-7.13-5.79-14.49-6.86-23.3-.65-5.28-.67-21.87-3.37-34.73,9.47-2.62,33.13-9.39,35.86-12.11C354.47,296.22,353.22,292.62,349.31,289.69Z" style="fill:none;stroke:#263238;stroke-miterlimit:10"></path><line x1="278.49" y1="341.24" x2="278.67" y2="330.37" style="fill:none;stroke:#263238;stroke-linecap:round;stroke-linejoin:round;stroke-width:0.5px"></line><polyline points="322.91 300.18 315.19 311.75 327.76 299.43" style="fill:none;stroke:#263238;stroke-linecap:round;stroke-linejoin:round;stroke-width:0.5px"></polyline><path d="M317.69,363.64s-3.36,9.33-15.31,14.18" style="fill:none;stroke:#263238;stroke-linecap:round;stroke-linejoin:round;stroke-width:0.5px"></path><path d="M309.85,370s-7.84,6.35-17.55,7.47" style="fill:none;stroke:#263238;stroke-linecap:round;stroke-linejoin:round;stroke-width:0.5px"></path><path d="M270.28,311.37a20.71,20.71,0,0,0,6,6.72c4.11,3,22,8.59,22,8.59l.38-18.67" style="fill:none;stroke:#263238;stroke-linecap:round;stroke-linejoin:round;stroke-width:0.5px"></path><path d="M297.9,305.4s0-4.85-2.24-7.47" style="fill:none;stroke:#263238;stroke-linecap:round;stroke-linejoin:round;stroke-width:0.5px"></path><path d="M317.71,273s5.41,4.39,7.43,6.42,17.69,18.89,21.74,20.58,9.46-2.36,5.41-11.15-27.15-16.52-30.86-20.92Z" style="fill:#fff"></path><g style="clip-path:url(#freepik--clip-path-11--inject-1--inject-5)"><path d="M318.66,273.43a19.08,19.08,0,0,1,6.57,3.28c2.46,2.19,13.13,11.22,18,14.77s6.56,7.11,5.2,8.21-5.2-3.28-7.39-4.65-12.85-12.31-12.85-12.31Z" style="fill:#0067A5;opacity:0.5;mix-blend-mode:multiply"></path></g><path d="M317.71,273s5.41,4.39,7.43,6.42,17.69,18.89,21.74,20.58,9.46-2.36,5.41-11.15-27.15-16.52-30.86-20.92Z" style="fill:none;stroke:#263238;stroke-miterlimit:10"></path><path d="M306.51,267.27l-9.92-5.59a1,1,0,0,1-.23-1.36h0a1,1,0,0,1,1.19-.29l10.52,3-9.15-7.56a1,1,0,0,1,0-1.44l.61-.55a1,1,0,0,1,1.11-.12l10.35,7s2.13-2.87,5.1-1.3,6,4.78,6.36,7.28-.32,7.71-6.86,6.67A12.69,12.69,0,0,1,306.51,267.27Z" style="fill:#fff;stroke:#263238;stroke-miterlimit:10"></path><path d="M308.3,258.42s4.11,5.6,6.52,5.8.55-2.46-.53-3.58-3.19-4.27-4.62-4.06S308.3,258.42,308.3,258.42Z" style="fill:#fff;stroke:#263238;stroke-miterlimit:10"></path><path d="M311,256.48s3.52,5.33,5.81,5.34.72-2.52-.23-3.56-2.73-4.07-4.12-3.75S311,256.48,311,256.48Z" style="fill:#fff;stroke:#263238;stroke-miterlimit:10"></path><path d="M314.65,273s-6.8-2.83-8.34-3.33,2.47-6.75,5.07-7.69,3.07,1,2.52,2.19a30.35,30.35,0,0,1-2.23,3.43s4-2.78,5.41.84" style="fill:#fff;stroke:#263238;stroke-miterlimit:10"></path><path d="M293.07,298.62a3.45,3.45,0,0,0-2.35-2.25c-1.11.37-2.18.77-3.19,1.18l-.27-.44c-3.91-6.35-17.58-10.74-17.09-2.93,0,0,4.5,7.2,5.28,10.8-1,.9-2.12,1.92-3.28,3,0,1.55.78,3.41,3.21,5.18,5.72,4.17,19.25,8.85,19.25,8.85S294.63,303.82,293.07,298.62Z" style="fill:#fff"></path><g style="clip-path:url(#freepik--clip-path-12--inject-1--inject-5)"><path d="M287.26,297.11c-3.91-6.35-17.58-10.74-17.09-2.93,0,0,4.5,7.2,5.28,10.8-1,.9-2.12,1.92-3.28,3,0,1.55.78,3.41,3.21,5.18a52.39,52.39,0,0,0,8.93,4.78l-6.4-4s6-2.19,6.56-3.55-3.28-.28-3.28-.28a35.81,35.81,0,0,1-1.91-3.28q-1.23-2.46,2.46-4.1a20.32,20.32,0,0,0,5.2-4.11l2-1.59-1.4.55Z" style="fill:#0067A5;opacity:0.5;mix-blend-mode:multiply"></path><path d="M293.53,321.64l1.1.39s0-7.72-.43-14.55l-.43-4.78" style="fill:#0067A5;opacity:0.5;mix-blend-mode:multiply"></path></g><path d="M293.07,298.62a3.45,3.45,0,0,0-2.35-2.25c-1.11.37-2.18.77-3.19,1.18l-.27-.44c-3.91-6.35-17.58-10.74-17.09-2.93,0,0,4.5,7.2,5.28,10.8-1,.9-2.12,1.92-3.28,3,0,1.55.78,3.41,3.21,5.18,5.72,4.17,19.25,8.85,19.25,8.85S294.63,303.82,293.07,298.62Z" style="fill:none;stroke:#263238;stroke-miterlimit:10"></path><polyline points="286.33 299.8 287.45 301.67 290.44 300.92" style="fill:none;stroke:#263238;stroke-linecap:round;stroke-linejoin:round;stroke-width:0.5px"></polyline><path d="M284.9,272.86c-2.62-6.56-10.93-6.56-14-3.94,0,0-9.19.44-9.19,7.44,0,2.87,1.92,7.65,4.93,12.17-.8-.7-3.18-1.23-3.18,2.26,0,4.81,7.12,3.14,7.42,3.07,3.87,4,8.54,6.85,13.14,6.12C295,298.23,287.53,279.42,284.9,272.86Z" style="fill:#fff"></path><g style="clip-path:url(#freepik--clip-path-13--inject-1--inject-5)"><path d="M276.27,294.22c-4.38-4.92-6-13.13-5.47-16.41s5.47-2.46,5.47-2.46l6.72-5.41c-3.54-3.55-9.57-3.17-12.08-1,0,0-9.19.44-9.19,7.44,0,2.87,1.92,7.65,4.93,12.17-.8-.7-3.18-1.23-3.18,2.26,0,4.81,7.12,3.14,7.42,3.07,3.87,4,8.54,6.85,13.14,6.12a8.71,8.71,0,0,0,1.36-.35A17.78,17.78,0,0,1,276.27,294.22Z" style="fill:#0067A5;opacity:0.5;mix-blend-mode:multiply"></path></g><path d="M284.9,272.86c-2.62-6.56-10.93-6.56-14-3.94,0,0-9.19.44-9.19,7.44,0,2.87,1.92,7.65,4.93,12.17-.8-.7-3.18-1.23-3.18,2.26,0,4.81,7.12,3.14,7.42,3.07,3.87,4,8.54,6.85,13.14,6.12C295,298.23,287.53,279.42,284.9,272.86Z" style="fill:none;stroke:#263238;stroke-miterlimit:10"></path><path d="M284.61,287.19l1.21-1.36a1.11,1.11,0,0,0-.23-1.67,11.17,11.17,0,0,1-1-.7c-1.27-1-2.11-3.6-2.11-3.6s-.53-3.67,1.69-3.1" style="fill:none;stroke:#263238;stroke-linecap:round;stroke-linejoin:round;stroke-width:0.5px"></path><path d="M286.85,290.67a3.31,3.31,0,0,1-4.37,1.23" style="fill:none;stroke:#263238;stroke-linecap:round;stroke-linejoin:round;stroke-width:0.5px"></path><path d="M278,280.25s-3.48-1.84-5.58,2.4" style="fill:none;stroke:#263238;stroke-linecap:round;stroke-linejoin:round;stroke-width:0.5px"></path><path d="M276.58,284.78a3.63,3.63,0,0,1,3-1.53" style="fill:none;stroke:#263238;stroke-linecap:round;stroke-linejoin:round;stroke-width:0.5px"></path><path d="M285.79,281.22c.31.87.23,1.69-.17,1.84s-1-.45-1.3-1.31-.23-1.69.18-1.84S285.48,280.35,285.79,281.22Z" style="fill:#263238"></path><path d="M269,291.12l.67-1.83s-4-2.44-2.7-4.18,3.5-4.38,3.06-5.69-2.17-2.55,0-3.86,11.39.26,11.39-1.06,9.4-5.5,3.7-13.76c-2-2.91-12.72-5.37-14-3.18s1.75,3.94,1.75,3.94-3.5-1.75-9.18,0-9,11.8-6.76,15.73S269,291.12,269,291.12Z" style="fill:#263238"></path><path d="M281.43,274.5s-6.62-3.49-10.06-2-3.19,4.42-7.37,4.42-4.67-2.21-4.67-2.21" style="fill:none;stroke:#fff;stroke-linecap:round;stroke-linejoin:round;stroke-width:0.5px"></path><path d="M260.31,270.52s1.47,3,4.67-.49,4.92-6.88,11.8-4.92,5.16,6.64,5.16,6.64" style="fill:none;stroke:#fff;stroke-linecap:round;stroke-linejoin:round;stroke-width:0.5px"></path><path d="M369,219.89l-14.35,6.55a2.44,2.44,0,0,0-.88,3.69l4.46,5.78a2.27,2.27,0,0,0,2.86.64l13.56-7.18a2.44,2.44,0,0,0,.81-3.56l-3.67-5.15A2.26,2.26,0,0,0,369,219.89Z" style="fill:#fff;stroke:#263238;stroke-miterlimit:10"></path><path d="M303.73,356.62a1.49,1.49,0,0,1-.76-.2,1.55,1.55,0,0,1-.59-2.12l67.36-118.49a1.08,1.08,0,0,1,1.48-.41,1.1,1.1,0,0,1,.42,1.49L305.09,355.83A1.54,1.54,0,0,1,303.73,356.62Z" style="fill:#fff;stroke:#263238;stroke-miterlimit:10"></path><path d="M325.84,369.89s34.21-5,42.54.68,4.16,13,1.56,17.69-45.14,7.12-57.11,7.12" style="fill:#fff;stroke:#263238;stroke-miterlimit:10"></path><path d="M305.72,387.46s-24.58-9.11-41.23-11.89c-9.76-1.63-17.75-4-22.43,3.78s4.9,14.72,10.14,17.23c17.73,8.49,85.08,3,88.21,3.48s7.28,2.6,15.08,2.6,11.45-6.76,6.24-9.88-20.8,1.56-27.05,1S305.72,387.46,305.72,387.46Z" style="fill:#fff"></path><g style="clip-path:url(#freepik--clip-path-14--inject-1--inject-5)"><path d="M268.19,376.44s-12.17.31-14,6.39,13.09,11.57,21.91,14,34.4-7.3,34.4-7.3l7.3,1.82s-19.78,7.31-21.91,8.22,1.52,4.26,5.48,4.26,37.43-6.08,47.78-9.74,19.48-6.39,22.22-10.95,1.22,4.56-5.18,7.91-21,9.44-27.08,10-25.87,3.66-25.87,3.66l-21.92,3.34-2.12.89-.92-7.28a178,178,0,0,0-20.09-1.21c-10.65,0-22.22-7.92-25.57-11.27s-3.35-8.69,1.52-12a35.49,35.49,0,0,1,9.44-4.48h19.78L276.1,378Z" style="fill:#0067A5;opacity:0.5;mix-blend-mode:multiply"></path></g><path d="M305.72,387.46s-24.58-9.11-41.23-11.89c-9.76-1.63-17.75-4-22.43,3.78s4.9,14.72,10.14,17.23c17.73,8.49,85.08,3,88.21,3.48s7.28,2.6,15.08,2.6,11.45-6.76,6.24-9.88-20.8,1.56-27.05,1S305.72,387.46,305.72,387.46Z" style="fill:none;stroke:#263238;stroke-miterlimit:10"></path><path d="M361.73,392.78c-4.63-2.79-17.52.62-24.69,1l-.45,6.29a35.4,35.4,0,0,1,3.82,0c3.12.52,7.28,2.6,15.08,2.6S366.94,395.9,361.73,392.78Z" style="fill:#263238;stroke:#263238;stroke-miterlimit:10"></path><path d="M360.62,394.25s1.69,4.13-5.13,8.41" style="fill:none;stroke:#fff;stroke-linecap:round;stroke-linejoin:round;stroke-width:0.5px"></path><path d="M352.77,376.81S344,372.14,334,379.93c-17.84,14-40.43,19.08-45.74,20.85s-19.45-.44-23,4-2.21,8,3.09,9.73,16.81-3.54,20.34-5.31,24.09-4.44,41.26-6.52,34.22-9.72,39.94-14.4" style="fill:#fff"></path><g style="clip-path:url(#freepik--clip-path-15--inject-1--inject-5)"><path d="M268.19,376.44s-12.17.31-14,6.39,13.09,11.57,21.91,14,34.4-7.3,34.4-7.3l7.3,1.82s-19.78,7.31-21.91,8.22,1.52,4.26,5.48,4.26,37.43-6.08,47.78-9.74,19.48-6.39,22.22-10.95,1.22,4.56-5.18,7.91-21,9.44-27.08,10-25.87,3.66-25.87,3.66l-21.92,3.34-2.12.89-.92-7.28a178,178,0,0,0-20.09-1.21c-10.65,0-22.22-7.92-25.57-11.27s-3.35-8.69,1.52-12a35.49,35.49,0,0,1,9.44-4.48h19.78L276.1,378Z" style="fill:#0067A5;opacity:0.5;mix-blend-mode:multiply"></path></g><path d="M352.77,376.81S344,372.14,334,379.93c-17.84,14-40.43,19.08-45.74,20.85s-19.45-.44-23,4-2.21,8,3.09,9.73,16.81-3.54,20.34-5.31,24.09-4.44,41.26-6.52,34.22-9.72,39.94-14.4" style="fill:none;stroke:#263238;stroke-miterlimit:10"></path><path d="M265.31,404.76c-3.54,4.42-2.21,8,3.09,9.73s16.81-3.54,20.34-5.31l.46-.2a24.38,24.38,0,0,0-.9-8.2C283,402.55,268.85,400.34,265.31,404.76Z" style="fill:#263238;stroke:#263238;stroke-miterlimit:10"></path><path d="M269.9,402.83s-3.73,2.24-3.36,6S271.4,414,271.4,414" style="fill:none;stroke:#fff;stroke-linecap:round;stroke-linejoin:round;stroke-width:0.5px"></path><path d="M347.92,373.72s7.47-2.62,11.2,2.61" style="fill:none;stroke:#263238;stroke-linecap:round;stroke-linejoin:round;stroke-width:0.5px"></path><path d="M308,394.25a127.94,127.94,0,0,0,19.79-7.84c11.57-5.6,17.17-9.34,20.53-8.59s10.08,2.24,8.21-.75,1.12-4.47,4.85-3.35" style="fill:none;stroke:#263238;stroke-linecap:round;stroke-linejoin:round;stroke-width:0.5px"></path><path d="M316.19,386a50.81,50.81,0,0,1,17.85-6.1" style="fill:none;stroke:#263238;stroke-linecap:round;stroke-linejoin:round;stroke-width:0.5px"></path><path d="M265.29,316.15a13.65,13.65,0,0,0-5.86,13.67c1.47,9.27,13.35,46,17.75,48.92S306.3,345,306.3,345L317,342s4.39-6.34,4.39-7.81-2.93-2.44-2.93-2.44,4.88.49,4.88-1-5.37-2.93-7.32-2.45-11.23,9.28-11.71,11.23S282,359.27,282,359.27L275.88,330" style="fill:#fff"></path><g style="clip-path:url(#freepik--clip-path-16--inject-1--inject-5)"><path d="M275.38,313.18A22.62,22.62,0,0,0,269.43,326c-1.09,8.2,8.21,36.92,8.21,36.92s-1.37,3.56-.55,3.83,1.91-.27,3.83-.27S303.07,350,303.07,350s-15.86,20.24-17.23,21.88-4.1,6.29-7.11,6.29-5.47-6.84-5.47-6.84l-10.12-26.8-3-13.41a21.23,21.23,0,0,1-.55-8.75c.82-4.1,7.94-10.94,7.94-10.94l4.65-3.45s2.46,5.36,4.1,5.64" style="fill:#0067A5;opacity:0.5;mix-blend-mode:multiply"></path></g><path d="M265.29,316.15a13.65,13.65,0,0,0-5.86,13.67c1.47,9.27,13.35,46,17.75,48.92S306.3,345,306.3,345L317,342s4.39-6.34,4.39-7.81-2.93-2.44-2.93-2.44,4.88.49,4.88-1-5.37-2.93-7.32-2.45-11.23,9.28-11.71,11.23S282,359.27,282,359.27L275.88,330" style="fill:none;stroke:#263238;stroke-miterlimit:10"></path><path d="M276.25,370.36c0-4.48,5.76-11.09,5.76-11.09a17.24,17.24,0,0,0-5.76,6.61" style="fill:none;stroke:#263238;stroke-linecap:round;stroke-linejoin:round;stroke-width:0.5px"></path><path d="M321.43,334.21c0-1.46-2.93-2.44-2.93-2.44s4.88.49,4.88-1-5.37-2.93-7.32-2.45-11.23,9.28-11.71,11.23l0,.05c-.16.36-1.19,2.94,2,5.32L317,342S321.43,335.68,321.43,334.21Z" style="fill:#fff;stroke:#263238;stroke-miterlimit:10"></path><polygon points="368.07 233.93 371.64 236.89 375.99 231.77 365.55 220.25 361.95 222.41 371.31 231.77 368.07 233.93" style="fill:#263238"></polygon></g></svg>